<?xml version="1.0" encoding="UTF-8" ?>
<!DOCTYPE svg PUBLIC "-//W3C//DTD SVG 1.1//EN" "http://www.w3.org/Graphics/SVG/1.1/DTD/svg11.dtd">
<svg width="87pt" height="161pt" viewBox="0 0 87 161" version="1.1" xmlns="http://www.w3.org/2000/svg">
<g id="#8c8b8c8d">
</g>
<g id="#5a515864">
<path fill="#5a5158" opacity="0.39" d=" M 27.98 14.82 C 28.11 14.87 28.37 14.99 28.50 15.04 L 28.21 15.30 L 27.98 14.82 Z" />
</g>
<g id="#493f4754">
<path fill="#493f47" opacity="0.33" d=" M 24.37 15.79 L 24.60 15.28 L 24.96 15.63 L 24.82 16.12 L 24.37 15.79 Z" />
</g>
<g id="#ffffffff">
<path fill="#ffffff" opacity="1.00" d=" M 24.96 15.63 C 26.06 15.74 27.14 15.63 28.21 15.30 C 28.33 15.27 28.59 15.20 28.72 15.17 C 28.95 18.12 29.13 21.08 29.18 24.04 C 29.28 55.11 29.01 86.18 29.31 117.25 L 29.06 117.88 C 29.04 118.28 28.98 119.07 28.96 119.46 L 29.57 119.96 C 30.08 120.22 31.09 120.74 31.60 121.01 C 38.34 122.13 45.20 121.59 52.00 121.64 C 57.27 121.61 62.54 121.90 67.80 121.60 L 67.84 120.71 L 67.84 119.89 C 67.82 117.75 65.60 116.58 64.28 115.20 C 64.15 115.08 63.88 114.84 63.75 114.72 C 63.63 114.60 63.38 114.37 63.26 114.25 C 63.14 114.13 62.89 113.89 62.77 113.77 C 62.64 113.63 62.38 113.35 62.24 113.21 C 60.23 110.95 58.28 108.64 56.32 106.35 C 56.22 106.24 56.04 106.02 55.95 105.91 C 55.84 105.77 55.63 105.50 55.53 105.37 C 55.26 104.90 54.71 103.97 54.44 103.51 L 54.74 102.64 C 55.02 102.08 55.57 100.97 55.85 100.42 C 57.96 102.14 59.98 103.97 61.95 105.85 C 62.06 105.96 62.29 106.18 62.40 106.29 C 62.52 106.41 62.74 106.64 62.86 106.75 C 62.97 106.87 63.19 107.11 63.30 107.23 C 63.43 107.37 63.68 107.65 63.80 107.79 C 65.78 110.09 67.71 112.43 69.74 114.68 C 69.83 114.79 70.02 115.00 70.12 115.10 C 70.21 115.21 70.40 115.42 70.50 115.53 C 70.61 115.66 70.83 115.91 70.95 116.04 C 73.01 118.46 75.03 120.92 77.12 123.32 C 76.43 124.66 75.88 126.06 75.31 127.45 C 75.22 127.57 75.03 127.82 74.93 127.95 C 74.83 128.07 74.62 128.31 74.52 128.43 C 72.96 129.98 71.50 131.64 70.22 133.42 C 70.12 133.55 69.92 133.79 69.83 133.91 C 69.72 134.03 69.51 134.27 69.41 134.40 C 67.83 136.05 66.38 137.81 65.05 139.67 C 64.93 139.81 64.69 140.11 64.57 140.25 C 64.46 140.38 64.23 140.64 64.12 140.77 C 64.00 140.90 63.76 141.16 63.64 141.28 C 62.04 142.87 60.55 144.58 59.12 146.32 C 59.00 146.43 58.75 146.63 58.63 146.74 C 58.48 146.83 58.18 147.00 58.02 147.09 C 57.63 147.08 56.83 147.07 56.44 147.07 C 56.30 146.93 56.02 146.66 55.88 146.52 C 55.78 146.10 55.57 145.25 55.47 144.82 C 55.75 144.30 56.31 143.25 56.58 142.72 C 56.70 142.58 56.92 142.30 57.03 142.15 C 57.14 142.02 57.36 141.77 57.47 141.64 C 59.03 140.05 60.47 138.36 61.78 136.57 C 61.87 136.44 62.07 136.20 62.17 136.08 C 62.28 135.96 62.50 135.72 62.61 135.60 C 64.12 134.06 65.68 132.50 66.68 130.55 C 66.75 130.40 66.91 130.08 66.99 129.93 C 67.06 129.77 67.19 129.47 67.25 129.31 C 67.44 128.91 67.81 128.09 67.99 127.68 C 64.69 127.15 61.34 127.02 58.00 127.05 C 49.61 127.11 41.22 127.08 32.83 127.14 C 30.10 127.10 27.36 127.05 24.62 127.07 C 24.69 98.38 24.62 69.69 24.65 41.00 C 24.68 32.54 24.44 24.08 24.96 15.63 Z" />
</g>
<g id="#91919191">
<path fill="#919191" opacity="0.57" d=" M 28.21 15.30 L 28.50 15.04 L 28.72 15.17 C 28.59 15.20 28.33 15.27 28.21 15.30 Z" />
<path fill="#919191" opacity="0.57" d=" M 55.53 105.37 C 55.63 105.50 55.84 105.77 55.95 105.91 L 55.52 105.83 L 55.53 105.37 Z" />
<path fill="#919191" opacity="0.57" d=" M 61.95 105.85 L 62.36 105.80 L 62.40 106.29 C 62.29 106.18 62.06 105.96 61.95 105.85 Z" />
<path fill="#919191" opacity="0.57" d=" M 55.95 105.91 C 56.04 106.02 56.22 106.24 56.32 106.35 L 55.93 106.38 L 55.95 105.91 Z" />
<path fill="#919191" opacity="0.57" d=" M 62.40 106.29 L 62.84 106.32 L 62.86 106.75 C 62.74 106.64 62.52 106.41 62.40 106.29 Z" />
<path fill="#919191" opacity="0.57" d=" M 62.86 106.75 L 63.27 106.80 L 63.30 107.23 C 63.19 107.11 62.97 106.87 62.86 106.75 Z" />
<path fill="#919191" opacity="0.57" d=" M 63.30 107.23 C 63.43 107.37 63.68 107.65 63.80 107.79 C 63.68 107.65 63.43 107.37 63.30 107.23 Z" />
<path fill="#919191" opacity="0.57" d=" M 62.24 113.21 C 62.38 113.35 62.64 113.63 62.77 113.77 C 62.64 113.63 62.38 113.35 62.24 113.21 Z" />
<path fill="#919191" opacity="0.57" d=" M 62.77 113.77 C 62.89 113.89 63.14 114.13 63.26 114.25 L 62.82 114.22 L 62.77 113.77 Z" />
<path fill="#919191" opacity="0.57" d=" M 63.26 114.25 C 63.38 114.37 63.63 114.60 63.75 114.72 L 63.30 114.70 L 63.26 114.25 Z" />
<path fill="#919191" opacity="0.57" d=" M 69.74 114.68 L 70.11 114.64 L 70.12 115.10 C 70.02 115.00 69.83 114.79 69.74 114.68 Z" />
<path fill="#919191" opacity="0.57" d=" M 63.75 114.72 C 63.88 114.84 64.15 115.08 64.28 115.20 L 63.81 115.17 L 63.75 114.72 Z" />
<path fill="#919191" opacity="0.57" d=" M 70.12 115.10 L 70.51 115.15 L 70.50 115.53 C 70.40 115.42 70.21 115.21 70.12 115.10 Z" />
<path fill="#919191" opacity="0.57" d=" M 70.50 115.53 C 70.61 115.66 70.83 115.91 70.95 116.04 C 70.83 115.91 70.61 115.66 70.50 115.53 Z" />
<path fill="#919191" opacity="0.57" d=" M 74.93 127.95 C 75.03 127.82 75.22 127.57 75.31 127.45 L 75.33 127.87 L 74.93 127.95 Z" />
<path fill="#919191" opacity="0.57" d=" M 74.52 128.43 C 74.62 128.31 74.83 128.07 74.93 127.95 L 74.94 128.36 L 74.52 128.43 Z" />
<path fill="#919191" opacity="0.57" d=" M 67.02 129.64 L 67.25 129.31 C 67.19 129.47 67.06 129.77 66.99 129.93 L 67.02 129.64 Z" />
<path fill="#919191" opacity="0.57" d=" M 66.68 130.55 C 66.75 130.40 66.91 130.08 66.99 129.93 C 66.91 130.08 66.75 130.40 66.68 130.55 Z" />
<path fill="#919191" opacity="0.57" d=" M 69.83 133.91 C 69.92 133.79 70.12 133.55 70.22 133.42 C 70.12 133.55 69.92 133.79 69.83 133.91 Z" />
<path fill="#919191" opacity="0.57" d=" M 69.41 134.40 C 69.51 134.27 69.72 134.03 69.83 133.91 L 69.82 134.32 L 69.41 134.40 Z" />
<path fill="#919191" opacity="0.57" d=" M 62.19 135.67 L 62.61 135.60 C 62.50 135.72 62.28 135.96 62.17 136.08 L 62.19 135.67 Z" />
<path fill="#919191" opacity="0.57" d=" M 61.78 136.57 C 61.87 136.44 62.07 136.20 62.17 136.08 C 62.07 136.20 61.87 136.44 61.78 136.57 Z" />
<path fill="#919191" opacity="0.57" d=" M 64.57 140.25 C 64.69 140.11 64.93 139.81 65.05 139.67 C 64.93 139.81 64.69 140.11 64.57 140.25 Z" />
<path fill="#919191" opacity="0.57" d=" M 64.12 140.77 C 64.23 140.64 64.46 140.38 64.57 140.25 L 64.54 140.72 L 64.12 140.77 Z" />
<path fill="#919191" opacity="0.57" d=" M 63.64 141.28 C 63.76 141.16 64.00 140.90 64.12 140.77 L 64.10 141.22 L 63.64 141.28 Z" />
<path fill="#919191" opacity="0.57" d=" M 58.63 146.74 C 58.75 146.63 59.00 146.43 59.12 146.32 C 59.00 146.43 58.75 146.63 58.63 146.74 Z" />
<path fill="#919191" opacity="0.57" d=" M 55.88 146.52 C 56.02 146.66 56.30 146.93 56.44 147.07 C 56.30 146.93 56.02 146.66 55.88 146.52 Z" />
<path fill="#919191" opacity="0.57" d=" M 58.02 147.09 C 58.18 147.00 58.48 146.83 58.63 146.74 C 58.48 146.83 58.18 147.00 58.02 147.09 Z" />
</g>
<g id="#4b414956">
</g>
<g id="#2c222a36">
</g>
<g id="#8988898b">
</g>
<g id="#3a303945">
</g>
<g id="#5a525964">
<path fill="#5a5259" opacity="0.39" d=" M 56.95 141.26 L 57.39 141.18 L 57.47 141.64 L 57.03 141.71 L 56.95 141.26 Z" />
</g>
<g id="#3b313946">
</g>
<g id="#2d242c38">
</g>
<g id="#1d151c25">
<path fill="#1d151c" opacity="0.15" d=" M 62.84 106.32 C 62.95 106.44 63.17 106.68 63.27 106.80 L 62.86 106.75 L 62.84 106.32 Z" />
</g>
<g id="#4b414a56">
<path fill="#4b414a" opacity="0.34" d=" M 55.93 106.38 L 56.32 106.35 L 56.60 106.81 L 56.12 106.90 L 55.93 106.38 Z" />
</g>
<g id="#85848588">
</g>
<g id="#85838588">
</g>
<g id="#5c545b66">
<path fill="#5c545b" opacity="0.40" d=" M 74.52 128.43 L 74.94 128.36 C 74.86 128.49 74.69 128.75 74.60 128.88 L 74.52 128.43 Z" />
</g>
<g id="#241b232e">
<path fill="#241b23" opacity="0.18" d=" M 62.82 114.22 L 63.26 114.25 L 63.30 114.70 L 62.83 114.69 L 62.82 114.22 Z" />
</g>
<g id="#2f262d3a">
<path fill="#2f262d" opacity="0.23" d=" M 70.11 114.64 C 70.21 114.77 70.41 115.02 70.51 115.15 L 70.12 115.10 L 70.11 114.64 Z" />
</g>
<g id="#2e252d39">
<path fill="#2e252d" opacity="0.22" d=" M 63.30 114.70 L 63.75 114.72 L 63.81 115.17 L 63.33 115.18 L 63.30 114.70 Z" />
</g>
<g id="#5e565d68">
<path fill="#5e565d" opacity="0.41" d=" M 63.81 115.17 L 64.28 115.20 L 64.26 115.68 L 63.79 115.65 L 63.81 115.17 Z" />
</g>
<g id="#82808286">
</g>
<g id="#6c666b74">
</g>
<g id="#8886878a">
</g>
<g id="#736e7279">
</g>
<g id="#86848688">
</g>
<g id="#2f262e3b">
</g>
<g id="#1f181e29">
<path fill="#1f181e" opacity="0.16" d=" M 74.93 127.95 L 75.33 127.87 C 75.23 127.99 75.04 128.24 74.94 128.36 L 74.93 127.95 Z" />
</g>
<g id="#85838487">
</g>
<g id="#3e353d4a">
<path fill="#3e353d" opacity="0.29" d=" M 62.19 135.67 C 62.27 135.54 62.44 135.28 62.52 135.15 L 62.61 135.60 L 62.19 135.67 Z" />
<path fill="#3e353d" opacity="0.29" d=" M 69.41 134.40 L 69.82 134.32 C 69.74 134.45 69.58 134.71 69.50 134.84 L 69.41 134.40 Z" />
</g>
<g id="#817f8185">
</g>
<g id="#85838587">
</g>
<g id="#1c151b25">
<path fill="#1c151b" opacity="0.15" d=" M 56.56 141.76 L 57.03 141.71 L 57.03 142.15 L 56.59 142.23 L 56.56 141.76 Z" />
</g>
<g id="#1d161c27">
</g>
<g id="#5a515964">
<path fill="#5a5159" opacity="0.39" d=" M 54.61 144.43 L 55.14 144.18 L 55.47 144.82 L 54.81 144.99 L 54.61 144.43 Z" />
</g>
<g id="#7e7b7e81">
</g>
</svg>
