<svg width="1866" height="2136" viewBox="0 0 1866 2136" fill="none" xmlns="http://www.w3.org/2000/svg">
<g clip-path="url(#clip0_112_3012)">
<rect width="21" height="21" transform="matrix(-0.928737 0.370738 0.370738 0.928737 856.427 341.133)" fill="#2F2217"/>
<rect width="21" height="21" transform="matrix(-0.928737 0.370738 0.370738 0.928737 875.93 333.348)" fill="#2F2217"/>
<rect width="21" height="21" transform="matrix(-0.928737 0.370738 0.370738 0.928737 1051.46 263.278)" fill="#2F2217"/>
<rect width="21" height="21" transform="matrix(-0.928737 0.370738 0.370738 0.928737 1113.75 419.306)" fill="#2F2217"/>
<rect width="21" height="21" transform="matrix(-0.928737 0.370738 0.370738 0.928737 903.219 345.066)" fill="#2F2217"/>
<rect width="21" height="21" transform="matrix(-0.928737 0.370738 0.370738 0.928737 1078.75 274.996)" fill="#2F2217"/>
<rect width="21" height="21" transform="matrix(-0.928737 0.370738 0.370738 0.928737 1141.03 431.024)" fill="#2F2217"/>
<rect width="21" height="21" transform="matrix(-0.928737 0.370738 0.370738 0.928737 1078.59 501.173)" fill="#2F2217"/>
<rect width="21" height="21" transform="matrix(-0.928737 0.370738 0.370738 0.928737 1098.1 493.388)" fill="#2F2217"/>
<rect width="21" height="21" transform="matrix(-0.928737 0.370738 0.370738 0.928737 1105.88 512.891)" fill="#2F2217"/>
<rect width="21" height="21" transform="matrix(-0.928737 0.370738 0.370738 0.928737 911.005 364.569)" fill="#2F2217"/>
<rect width="21" height="21" transform="matrix(-0.928737 0.370738 0.370738 0.928737 719.744 621.809)" fill="#CBBFBF"/>
<rect width="21" height="21" transform="matrix(-0.928737 0.370738 0.370738 0.928737 727.529 641.312)" fill="#CBBFBF"/>
<rect width="21" height="21" transform="matrix(-0.928737 0.370738 0.370738 0.928737 708.026 649.098)" fill="#CBBFBF"/>
<rect width="21" height="21" transform="matrix(-0.928737 0.370738 0.370738 0.928737 715.811 668.601)" fill="#CBBFBF"/>
<rect width="21" height="21" transform="matrix(-0.928737 0.370738 0.370738 0.928737 696.308 676.387)" fill="#CBBFBF"/>
<rect width="21" height="21" transform="matrix(-0.928737 0.370738 0.370738 0.928737 704.093 695.89)" fill="#CBBFBF"/>
<rect width="21" height="21" transform="matrix(-0.928737 0.370738 0.370738 0.928737 684.59 703.676)" fill="#CBBFBF"/>
<rect width="21" height="21" transform="matrix(-0.928737 0.370738 0.370738 0.928737 665.086 711.461)" fill="#CBBFBF"/>
<rect width="21" height="21" transform="matrix(-0.928737 0.370738 0.370738 0.928737 668.86 890.846)" fill="#120D08"/>
<rect width="21" height="21" transform="matrix(-0.928737 0.370738 0.370738 0.928737 922.405 789.634)" fill="#120D08"/>
<rect width="21" height="21" transform="matrix(-0.928737 0.370738 0.370738 0.928737 657.142 918.135)" fill="#120D08"/>
<rect width="21" height="21" transform="matrix(-0.928737 0.370738 0.370738 0.928737 731.223 933.785)" fill="#120D08"/>
<rect width="21" height="21" transform="matrix(-0.928737 0.370738 0.370738 0.928737 910.687 816.923)" fill="#120D08"/>
<path fill-rule="evenodd" clip-rule="evenodd" d="M957.559 707.767L938.056 715.553L918.552 723.338L926.338 742.842L945.841 735.056L953.627 754.56L973.13 746.774L965.345 727.271L957.559 707.767Z" fill="#120D08"/>
<path fill-rule="evenodd" clip-rule="evenodd" d="M407.767 633.289L388.264 641.074L396.049 660.578L376.546 668.363L384.331 687.867L403.835 680.081L423.338 672.296L415.553 652.792L407.767 633.289Z" fill="#120D08"/>
<path fill-rule="evenodd" clip-rule="evenodd" d="M318.115 578.631L337.618 570.845L345.404 590.349L353.189 609.852L333.686 617.638L341.471 637.141L321.968 644.927L314.182 625.423L306.397 605.92L325.9 598.134L318.115 578.631Z" fill="#120D08"/>
<path fill-rule="evenodd" clip-rule="evenodd" d="M333.765 504.55L314.262 512.335L294.758 520.121L302.544 539.624L322.047 531.839L341.551 524.053L333.765 504.55ZM341.551 524.053L349.336 543.557L368.84 535.771L361.054 516.268L341.551 524.053Z" fill="#120D08"/>
<path fill-rule="evenodd" clip-rule="evenodd" d="M864.212 360.637L844.709 368.422L852.494 387.926L871.998 380.14L879.783 399.644L887.569 419.147L907.072 411.362L914.858 430.865L934.361 423.08L926.576 403.576L918.79 384.073L899.287 391.858L891.501 372.355L883.716 352.851L864.212 360.637Z" fill="#120D08"/>
<path fill-rule="evenodd" clip-rule="evenodd" d="M1031.96 271.064L1012.45 278.849L1020.24 298.353L1039.74 290.567L1031.96 271.064ZM1039.74 290.567L1047.53 310.071L1055.31 329.574L1074.82 321.789L1082.6 341.292L1102.11 333.507L1094.32 314.003L1086.54 294.5L1067.03 302.285L1059.25 282.782L1039.74 290.567ZM1121.53 438.81L1102.03 446.595L1109.81 466.099L1129.32 458.313L1121.53 438.81ZM1129.32 458.313L1137.1 477.817L1144.89 497.32L1164.39 489.534L1156.61 470.031L1148.82 450.528L1129.32 458.313ZM1102.03 446.595L1094.24 427.092L1074.74 434.877L1082.52 454.381L1102.03 446.595ZM1066.87 528.462L1086.38 520.677L1094.16 540.18L1113.67 532.394L1121.45 551.898L1129.24 571.401L1137.02 590.905L1117.52 598.69L1109.73 579.187L1101.95 559.683L1094.16 540.18L1074.66 547.966L1066.87 528.462Z" fill="#120D08"/>
<rect width="21" height="21" transform="matrix(-0.928737 0.370738 0.370738 0.928737 661.074 871.342)" fill="#2F2217"/>
<rect width="21" height="21" transform="matrix(-0.928737 0.370738 0.370738 0.928737 949.694 801.352)" fill="#2F2217"/>
<rect width="21" height="21" transform="matrix(-0.928737 0.370738 0.370738 0.928737 723.438 914.282)" fill="#2F2217"/>
<rect width="21" height="21" transform="matrix(-0.928737 0.370738 0.370738 0.928737 649.356 898.631)" fill="#2F2217"/>
<rect width="21" height="21" transform="matrix(-0.928737 0.370738 0.370738 0.928737 930.191 809.137)" fill="#2F2217"/>
<path d="M388.264 641.074L368.76 648.859L376.546 668.363L396.049 660.577L388.264 641.074Z" fill="#2F2217"/>
<path d="M399.982 613.785L380.478 621.57L388.264 641.074L407.767 633.288L399.982 613.785Z" fill="#2F2217"/>
<path d="M353.269 496.764L333.765 504.55L341.551 524.053L361.054 516.268L353.269 496.764Z" fill="#2F2217"/>
<rect width="21" height="21" transform="matrix(-0.928737 0.370738 0.370738 0.928737 711.72 941.571)" fill="#2F2217"/>
<path fill-rule="evenodd" clip-rule="evenodd" d="M750.886 699.823L770.389 692.037L778.175 711.541L797.678 703.755L789.893 684.252L809.396 676.466L817.182 695.97L824.967 715.473L832.753 734.977L840.538 754.48L821.035 762.266L828.82 781.769L809.317 789.555L801.531 770.051L782.956 777.466L790.742 796.97L771.239 804.755L763.453 785.252L762.524 785.622L743.021 793.408L750.806 812.911L731.303 820.697L723.517 801.193L704.014 808.979L684.51 816.764L676.725 797.261L668.939 777.757L649.436 785.543L641.65 766.039L633.865 746.536L653.368 738.75L661.154 758.254L668.939 777.757L688.443 769.972L680.657 750.468L700.161 742.683L707.946 762.186L727.45 754.401L719.664 734.897L739.168 727.112L746.953 746.615L766.457 738.83L758.671 719.326L750.886 699.823Z" fill="#20150C"/>
<path fill-rule="evenodd" clip-rule="evenodd" d="M322.047 531.839L341.551 524.053L349.336 543.557L368.84 535.771L388.343 527.986L396.129 547.489L415.632 539.704L423.418 559.207L442.921 551.422L450.707 570.925L470.21 563.14L477.996 582.643L497.499 574.858L517.003 567.072L536.506 559.287L556.01 551.501L563.795 571.004L583.299 563.219L602.802 555.433L622.306 547.648L641.809 539.862L649.595 559.366L630.091 567.151L610.588 574.937L618.373 594.44L598.87 602.226L579.366 610.011L587.152 629.515L567.648 637.3L559.863 617.797L540.359 625.582L520.856 633.368L501.352 641.153L493.567 621.65L474.063 629.436L454.56 637.221L435.056 645.007L415.553 652.792L407.767 633.289L399.982 613.785L419.485 606L411.7 586.496L392.196 594.282L372.693 602.067L364.907 582.564L345.404 590.349L337.618 570.846L329.833 551.342L322.047 531.839ZM723.676 575.016L704.173 582.802L684.669 590.587L692.455 610.091L711.958 602.305L719.744 621.809L727.529 641.312L735.315 660.816L754.818 653.03L774.322 645.245L793.825 637.459L801.611 656.963L782.107 664.748L762.604 672.534L770.389 692.037L789.893 684.252L809.396 676.466L817.182 695.97L824.967 715.473L832.753 734.977L840.538 754.48L848.324 773.984L856.109 793.487L836.606 801.273L817.102 809.058L797.599 816.844L778.095 824.629L758.592 832.415L739.088 840.2L746.874 859.704L727.37 867.489L735.156 886.993L715.652 894.778L707.867 875.275L688.363 883.06L696.149 902.564L703.934 922.067L723.438 914.282L742.941 906.496L762.445 898.711L754.659 879.207L774.163 871.422L766.377 851.918L785.881 844.133L793.666 863.636L801.452 883.14L809.237 902.643L828.741 894.858L836.526 914.361L856.03 906.576L863.815 926.079L871.601 945.583L891.104 937.797L891.475 938.726L898.89 957.301L906.675 976.804L926.179 969.019L945.682 961.233L937.897 941.73L918.393 949.515L910.979 930.94L910.608 930.012L903.193 911.437L883.69 919.222L883.319 918.294L875.533 898.79L867.748 879.287L859.962 859.783L879.466 851.998L898.969 844.212L891.184 824.709L910.687 816.923L902.902 797.42L883.398 805.205L875.613 785.702L867.827 766.198L860.042 746.695L879.545 738.909L871.76 719.406L863.974 699.902L883.478 692.117L875.692 672.613L867.907 653.11L860.121 633.606L879.625 625.821L871.839 606.317L891.343 598.532L883.557 579.028L903.061 571.243L922.564 563.457L914.779 543.954L934.282 536.168L953.786 528.383L973.289 520.597L992.793 512.812L1000.58 532.315L1020.08 524.53L1039.58 516.744L1047.37 536.248L1066.87 528.462L1059.09 508.959L1051.3 489.455L1070.81 481.67L1090.31 473.884L1109.81 466.099L1102.03 446.595L1082.52 454.381L1074.74 434.877L1094.24 427.092L1086.46 407.588L1066.95 415.374L1059.17 395.87L1051.38 376.367L1043.6 356.863L1035.81 337.36L1055.31 329.574L1047.53 310.071L1028.03 317.856L1008.52 325.642L1016.31 345.145L996.804 352.931L977.301 360.716L985.086 380.22L965.583 388.005L946.079 395.791L953.865 415.294L934.361 423.08L942.147 442.583L922.644 450.369L914.858 430.865L907.073 411.362L887.569 419.147L879.784 399.644L860.28 407.429L868.066 426.933L875.851 446.436L856.348 454.222L836.844 462.007L844.63 481.511L831.627 486.701L825.126 489.296L812.124 494.487L819.909 513.99L813.408 516.585L821.194 536.089L801.69 543.874L809.476 563.378L817.261 582.881L797.758 590.667L778.254 598.452L770.469 578.949L762.683 559.445L743.18 567.231L735.394 547.727L715.891 555.513L723.676 575.016ZM1094.24 427.092L1102.03 446.595L1121.53 438.81L1113.75 419.306L1094.24 427.092ZM902.902 797.42L922.405 789.634L914.62 770.131L934.123 762.345L926.338 742.842L906.834 750.627L887.331 758.413L895.116 777.916L902.902 797.42ZM688.363 883.06L680.578 863.557L661.074 871.342L668.86 890.846L688.363 883.06ZM707.867 875.275L727.37 867.489L719.585 847.986L700.081 855.771L707.867 875.275ZM735.315 660.816L715.811 668.601L723.597 688.105L743.1 680.319L735.315 660.816ZM731.382 707.608L750.886 699.823L758.671 719.326L739.168 727.112L731.382 707.608ZM692.375 723.179L672.872 730.965L653.368 738.75L661.154 758.254L680.657 750.468L700.161 742.683L692.375 723.179ZM633.865 746.536L653.368 738.75L645.583 719.247L626.079 727.032L618.665 708.458L599.161 716.243L606.947 735.747L626.45 727.961L633.865 746.536ZM633.865 746.536L614.361 754.321L622.147 773.825L641.65 766.039L633.865 746.536Z" fill="#46301E"/>
<path fill-rule="evenodd" clip-rule="evenodd" d="M361.054 516.268L380.558 508.482L388.343 527.986L407.847 520.2L415.632 539.704L435.136 531.918L442.921 551.422L462.425 543.636L470.21 563.14L489.714 555.354L509.217 547.569L528.721 539.783L548.224 531.998L556.01 551.501L575.513 543.715L595.017 535.93L602.802 555.433L583.299 563.219L563.795 571.004L556.01 551.501L536.506 559.287L517.003 567.072L497.499 574.858L477.996 582.643L470.21 563.14L450.707 570.925L442.921 551.422L423.418 559.207L415.632 539.704L396.129 547.489L388.343 527.986L368.84 535.771L361.054 516.268ZM630.091 567.151L610.588 574.937L618.373 594.44L637.877 586.655L657.38 578.869L665.166 598.373L684.669 590.587L704.173 582.802L723.676 575.016L715.891 555.513L735.394 547.727L743.18 567.231L762.683 559.445L770.469 578.949L778.254 598.452L797.758 590.667L817.261 582.881L809.476 563.378L801.69 543.874L821.194 536.089L813.408 516.585L832.912 508.8L825.126 489.296L844.63 481.511L836.844 462.007L817.341 469.793L797.837 477.578L805.623 497.082L786.119 504.867L793.905 524.371L774.401 532.156L754.898 539.942L747.112 520.438L727.609 528.224L708.105 536.009L688.602 543.795L669.098 551.58L649.595 559.366L630.091 567.151ZM860.28 407.429L840.777 415.215L848.562 434.718L829.059 442.504L836.844 462.007L856.348 454.222L875.851 446.436L868.066 426.933L860.28 407.429ZM860.28 407.429L879.784 399.644L871.998 380.14L852.495 387.926L860.28 407.429ZM329.833 551.342L310.329 559.128L318.115 578.631L337.618 570.846L329.833 551.342ZM392.196 594.282L411.7 586.496L419.485 606L399.982 613.785L392.196 594.282ZM598.87 602.226L579.366 610.011L587.152 629.515L606.655 621.729L598.87 602.226ZM735.315 660.816L754.818 653.03L774.322 645.245L793.825 637.459L801.611 656.963L782.107 664.748L762.604 672.534L770.389 692.037L750.886 699.823L731.382 707.608L739.168 727.112L719.664 734.897L700.161 742.683L692.375 723.179L711.879 715.394L704.093 695.89L723.597 688.105L743.1 680.319L735.315 660.816ZM828.82 781.769L848.324 773.984L856.109 793.487L836.606 801.273L817.102 809.058L797.599 816.844L778.095 824.629L758.592 832.415L739.088 840.2L746.874 859.704L727.37 867.489L735.156 886.993L715.652 894.778L707.867 875.275L688.363 883.06L696.149 902.564L676.645 910.349L668.86 890.846L688.363 883.06L680.578 863.557L700.081 855.771L707.867 875.275L727.37 867.489L719.585 847.986L739.088 840.2L731.303 820.697L750.806 812.911L770.31 805.126L789.813 797.34L809.317 789.555L828.82 781.769ZM902.902 797.42L895.116 777.916L887.331 758.413L906.834 750.627L926.338 742.842L918.552 723.338L899.049 731.124L891.263 711.62L871.76 719.406L879.545 738.909L860.042 746.695L867.827 766.198L875.613 785.702L883.398 805.205L902.902 797.42ZM895.408 891.933L875.904 899.719L883.69 919.222L903.193 911.437L895.408 891.933ZM910.608 930.012L930.111 922.226L937.897 941.73L918.393 949.515L910.608 930.012ZM914.858 430.865L934.361 423.08L926.576 403.576L918.79 384.073L938.294 376.287L957.797 368.502L950.012 348.998L969.515 341.213L989.019 333.427L981.233 313.924L1000.74 306.138L1020.24 298.353L1039.74 290.567L1047.53 310.071L1028.03 317.856L1008.52 325.642L1016.31 345.145L996.804 352.931L977.301 360.716L985.086 380.22L965.583 388.005L946.079 395.791L953.865 415.294L934.361 423.08L942.147 442.583L922.644 450.369L914.858 430.865ZM1078.67 388.085L1059.17 395.87L1066.95 415.374L1086.46 407.588L1078.67 388.085ZM1086.46 407.588L1094.24 427.092L1113.75 419.306L1105.96 399.803L1086.46 407.588ZM1070.81 481.67L1051.3 489.455L1059.09 508.959L1078.59 501.173L1070.81 481.67Z" fill="#734F31"/>
<rect width="21" height="21" transform="matrix(-0.928737 0.370738 0.370738 0.928737 606.655 621.729)" fill="#E9E9E9"/>
<rect width="21" height="21" transform="matrix(-0.928737 0.370738 0.370738 0.928737 645.662 606.158)" fill="#E9E9E9"/>
<rect width="21" height="21" transform="matrix(-0.928737 0.370738 0.370738 0.928737 637.877 586.655)" fill="#E9E9E9"/>
<path fill-rule="evenodd" clip-rule="evenodd" d="M618.373 594.44L598.87 602.226L606.655 621.729L614.441 641.233L633.944 633.447L626.159 613.944L618.373 594.44ZM653.448 625.662L633.944 633.447L641.73 652.951L649.515 672.454L657.301 691.958L637.797 699.743L630.012 680.24L622.226 660.736L614.441 641.233L594.937 649.018L575.434 656.804L583.219 676.307L591.005 695.811L598.79 715.314L618.294 707.529L626.079 727.032L645.583 719.247L665.086 711.461L684.59 703.676L676.804 684.172L696.308 676.387L688.522 656.883L708.026 649.098L700.24 629.594L719.744 621.809L711.958 602.305L692.455 610.091L684.669 590.587L665.166 598.373L657.38 578.869L637.877 586.655L645.662 606.158L653.448 625.662ZM789.893 684.252L770.389 692.037L778.175 711.541L797.678 703.755L789.893 684.252ZM739.168 727.112L758.671 719.326L766.457 738.83L746.953 746.615L739.168 727.112ZM719.664 734.897L700.161 742.683L707.946 762.186L727.45 754.401L719.664 734.897ZM661.154 758.254L680.657 750.468L688.443 769.972L668.939 777.757L661.154 758.254ZM723.517 801.193L704.014 808.979L711.799 828.482L731.303 820.697L723.517 801.193ZM743.021 793.408L762.524 785.622L770.31 805.126L750.806 812.911L743.021 793.408ZM801.531 770.051L782.028 777.837L789.813 797.34L809.317 789.555L801.531 770.051ZM821.035 762.266L840.538 754.48L848.324 773.984L828.82 781.769L821.035 762.266Z" fill="#E9E9E9"/>
<path fill-rule="evenodd" clip-rule="evenodd" d="M633.944 633.447L614.441 641.233L622.226 660.736L630.012 680.24L637.797 699.743L657.301 691.958L649.515 672.454L641.73 652.951L633.944 633.447Z" fill="#FF1831"/>
</g>
<g clip-path="url(#clip1_112_3012)">
<path fill-rule="evenodd" clip-rule="evenodd" d="M1150.56 1267.26H1175.93V1292.63V1318H1201.3H1226.67L1226.67 1343.37H1252.04H1277.41H1302.78L1302.78 1368.74H1328.15H1353.52L1353.52 1343.37V1318H1378.89V1343.37L1404.26 1343.37V1318L1429.63 1318V1292.63H1455V1318V1343.37V1368.74H1429.63V1394.11H1404.26L1404.26 1419.48V1444.85V1470.22H1378.89V1495.59H1353.52L1328.15 1495.59V1520.96H1302.78H1277.41H1252.04V1546.33V1571.7H1226.67V1546.33L1201.3 1546.33V1520.96V1495.59H1175.93V1470.22V1444.85V1419.48H1150.56V1394.11V1368.74V1343.37V1318V1292.63V1267.26ZM1252.04 1520.96V1495.59H1226.67L1226.67 1520.96H1252.04ZM1378.89 1419.48V1394.11H1353.52H1328.15V1419.48H1302.78H1277.41H1252.04V1394.11H1226.67L1226.67 1419.48V1444.85H1252.04V1470.22H1277.41V1495.59H1302.78V1470.22H1328.15V1444.85H1353.52L1353.52 1419.48L1378.89 1419.48ZM1226.67 1394.11V1368.74H1201.3V1394.11L1226.67 1394.11ZM1581.85 1495.59H1607.22V1520.96V1546.33V1571.7V1597.07H1581.85V1571.7V1546.33V1520.96H1556.48V1495.59V1470.22H1531.11V1444.85H1505.74V1419.48L1480.37 1419.48V1394.11H1505.74H1531.11V1419.48H1556.48V1444.85H1581.85V1470.22L1581.85 1495.59Z" fill="#3E3546"/>
<path fill-rule="evenodd" clip-rule="evenodd" d="M1607.22 1089.67H1632.59V1115.04V1140.41H1607.22H1581.85V1115.04V1089.67H1607.22ZM871.482 1216.52H896.853V1241.89V1267.26H871.482V1292.63V1318H846.112V1343.37H871.482H896.853V1368.74V1394.11H871.482V1419.48H846.112H820.741V1394.11H795.371V1368.74H820.741L846.112 1368.74V1343.37H820.741V1318V1292.63V1267.26V1241.89H846.112L871.482 1241.89V1216.52ZM1708.7 1216.52H1683.33V1241.89L1657.96 1241.89V1267.26V1292.63V1318H1683.33L1683.33 1292.63L1708.7 1292.63V1267.26V1241.89V1216.52ZM1683.33 1318V1343.37H1657.96V1368.74H1632.59V1394.11V1419.48H1657.96H1683.33V1394.11L1683.33 1368.74H1708.7V1343.37V1318H1683.33Z" fill="#AB947A"/>
<path fill-rule="evenodd" clip-rule="evenodd" d="M1581.85 1115.04H1556.48V1140.41H1581.85V1115.04ZM896.852 1216.52V1241.89H871.482V1267.26V1292.63H846.111V1318H871.482H896.852V1292.63H922.223V1267.26H947.593V1241.89V1216.52H922.223H896.852ZM896.852 1343.37H922.223V1318H947.593V1343.37V1368.74H922.223V1394.11V1419.48H896.852V1444.85V1470.22H871.482H846.111V1444.85V1419.48H871.482V1394.11V1368.74L896.852 1368.74V1343.37Z" fill="#966C6C"/>
<path fill-rule="evenodd" clip-rule="evenodd" d="M1632.59 1064.3H1607.22V1089.67H1632.59V1064.3ZM1632.59 1089.67V1115.04H1657.96V1089.67L1632.59 1089.67ZM1607.22 1140.41H1581.85V1165.78H1607.22V1140.41ZM947.592 1267.26H922.222H896.852V1292.63V1318H871.481V1343.37H896.852H922.222V1318H947.592V1292.63V1267.26ZM1657.96 1292.63V1318H1632.59V1292.63V1267.26V1241.89H1657.96V1267.26V1292.63ZM1657.96 1343.37H1632.59V1368.74H1657.96V1343.37ZM1632.59 1368.74L1607.22 1368.74V1394.11H1632.59V1368.74ZM1734.07 1241.89V1267.26H1708.7V1241.89V1216.52H1734.07V1241.89ZM1734.07 1368.74V1343.37V1318H1708.7V1343.37V1368.74H1734.07ZM1708.7 1368.74L1683.33 1368.74V1394.11V1419.48V1444.85H1708.7V1470.22H1734.07V1444.85V1419.48V1394.11H1708.7V1368.74ZM1099.81 1749.3H1125.18V1774.67V1800.04V1825.41V1850.78H1099.81H1074.44H1049.07V1876.15H1074.44H1099.81V1901.52H1125.18H1150.56V1926.89V1952.26V1977.63H1125.18H1099.81V1952.26H1074.44H1049.07V1926.89H1023.7V1901.52V1876.15V1850.78V1825.41V1800.04H1049.07V1774.67H1074.44H1099.81V1749.3ZM1531.11 1749.3H1505.74V1774.67H1480.37V1800.04H1455V1825.41V1850.78V1876.15V1901.52V1926.89H1480.37V1952.26H1505.74H1531.11H1556.48V1926.89V1901.52H1531.11V1876.15H1505.74H1480.37V1850.78H1505.74H1531.11V1825.41H1556.48V1800.04V1774.67V1749.3H1531.11ZM947.592 1368.74H922.222V1394.11H947.592V1368.74ZM922.222 1394.11H896.852V1419.48V1444.85H871.481V1470.22V1495.59H896.852H922.222V1470.22V1444.85V1419.48V1394.11Z" fill="#966C6C"/>
<path fill-rule="evenodd" clip-rule="evenodd" d="M1531.11 988.185H1556.48H1581.85V1013.56H1607.22V1038.93V1064.3V1089.67H1581.85V1115.04H1556.48V1089.67H1531.11V1064.3H1505.74V1038.93V1013.56H1531.11V988.185ZM1049.07 1089.67H1023.7L1023.7 1115.04H998.334V1140.41H972.964V1165.78H947.593V1191.15V1216.52H922.223H896.853H871.482V1241.89H846.112V1216.52V1191.15V1165.78H871.482V1140.41V1115.04H896.853V1089.67H922.223V1064.3L947.593 1064.3V1038.93H972.964V1013.56H998.334H1023.7L1023.7 1038.93H1049.07V1064.3V1089.67ZM1201.3 1115.04H1226.67V1140.41H1201.3V1115.04ZM1226.67 1165.78H1201.3V1191.15H1226.67V1165.78ZM1226.67 1191.15L1226.67 1216.52H1252.04V1191.15H1226.67ZM1252.04 1241.89H1226.67V1267.26H1252.04V1292.63H1277.41H1302.78H1328.15H1353.52V1267.26H1328.15H1302.78L1302.78 1241.89H1277.41H1252.04ZM820.741 1444.85H846.112V1470.22V1495.59H820.741H795.371V1470.22L770.001 1470.22V1444.85H795.371V1419.48H820.741V1444.85ZM1607.22 1140.41H1632.59V1115.04H1657.96V1140.41H1683.33V1165.78L1708.7 1165.78V1191.15V1216.52H1683.33V1241.89H1657.96H1632.59V1216.52V1191.15H1607.22V1165.78V1140.41ZM1581.85 1419.48H1607.22V1394.11H1632.59V1419.48H1657.96H1683.33V1444.85H1708.7V1470.22H1683.33H1657.96L1657.96 1444.85H1632.59H1607.22H1581.85V1419.48ZM1353.52 1115.04H1328.15V1140.41H1353.52H1378.89V1115.04H1404.26V1089.67H1378.89H1353.52V1115.04ZM1328.15 1191.15H1353.52V1165.78H1378.89H1404.26V1191.15H1378.89V1216.52H1353.52H1328.15V1191.15Z" fill="#905EA9"/>
<path fill-rule="evenodd" clip-rule="evenodd" d="M1531.11 937.445H1505.74V962.815H1480.37H1455V988.185H1429.63V1013.56H1404.26H1378.89V1038.93H1353.52V1064.3H1328.15V1089.67H1302.78H1277.41V1115.04H1252.04H1226.67L1226.67 1140.41H1201.3V1115.04V1089.67H1175.93V1064.3H1150.56V1089.67V1115.04H1175.93V1140.41V1165.78H1201.3H1226.67L1226.67 1191.15H1252.04V1216.52H1226.67L1226.67 1191.15H1201.3V1216.52H1175.93V1241.89V1267.26H1201.3V1292.63H1226.67L1252.04 1292.63V1267.26H1226.67V1241.89H1252.04H1277.41H1302.78V1267.26H1328.15H1353.52V1292.63H1328.15H1302.78H1277.41H1252.04V1318H1277.41H1302.78V1343.37H1328.15V1318H1353.52H1378.89V1292.63H1404.26H1429.63V1267.26V1241.89H1404.26V1216.52H1429.63V1191.15V1165.78V1140.41H1455V1115.04V1089.67H1480.37L1480.37 1064.3H1505.74V1038.93V1013.56H1531.11V988.185H1556.48H1581.85V962.815V937.445H1556.48H1531.11ZM1125.19 1038.93V1064.3H1150.56V1038.93H1125.19ZM1125.19 1038.93V1013.56H1099.81V988.185H1074.44V962.815H1049.07H1023.7V988.185V1013.56V1038.93H1049.07V1064.3V1089.67H1074.44V1064.3H1099.81V1038.93H1125.19ZM1353.52 1089.67H1378.89H1404.26V1115.04L1378.89 1115.04V1140.41H1353.52H1328.15V1115.04H1353.52V1089.67ZM1353.52 1165.78L1378.89 1165.78H1404.26V1191.15H1378.89V1216.52H1353.52H1328.15V1191.15H1353.52V1165.78ZM922.222 1267.26H947.592V1292.63V1318H922.222V1343.37H896.852H871.481H846.111L846.111 1368.74H820.741V1343.37H846.111V1318H871.481V1292.63H896.852L922.222 1292.63V1267.26ZM846.111 1419.48H871.481V1444.85H896.852H922.222V1470.22H896.852H871.481H846.111V1444.85H820.741V1419.48H795.37V1394.11H820.741V1419.48H846.111ZM922.222 1470.22V1495.59V1520.96V1546.33H896.852V1520.96V1495.59H871.481V1520.96H846.111L846.111 1546.33V1571.7H820.74V1546.33V1520.96V1495.59H846.111V1470.22H871.481H896.852H922.222ZM770 1469.01H795.37V1494.38V1519.76V1545.13H770V1519.76V1494.38V1469.01ZM1708.7 1470.22H1734.07V1495.59H1708.7V1520.96H1683.33H1657.96V1546.33H1632.59H1607.22V1520.96V1495.59H1632.59V1470.22V1444.85H1657.96V1470.22H1683.33H1708.7ZM1683.33 1292.63H1708.7V1267.26H1734.07V1292.63V1318H1708.7H1683.33V1343.37H1657.96H1632.59V1318H1657.96H1683.33V1292.63ZM1734.07 1368.74H1708.7V1394.11H1734.07V1368.74ZM1175.93 1444.85V1470.22H1150.56H1125.19H1099.81V1444.85V1419.48V1394.11H1125.19H1150.56V1419.48H1175.93V1444.85ZM1175.93 1470.22H1150.56H1125.18H1099.81V1495.59H1125.18V1520.96H1150.56H1175.93V1495.59V1470.22ZM1404.26 1444.85V1419.48V1394.11H1429.63V1368.74H1455V1394.11H1480.37V1419.48V1444.85H1455V1470.22H1429.63H1404.26V1444.85ZM1455 1723.93V1749.3V1774.67V1800.04H1480.37V1774.67H1505.74V1749.3H1531.11V1723.93V1698.56H1505.74H1480.37H1455V1723.93ZM1480.37 2003V1977.63V1952.26H1455V1977.63H1429.63V2003H1404.26V1977.63H1429.63V1952.26H1455V1926.89H1480.37L1480.37 1952.26H1505.74H1531.11H1556.48H1581.85V1977.63H1607.22V2003H1581.85H1556.48V1977.63H1531.11H1505.74V2003H1480.37ZM1505.74 1850.78H1480.37V1876.15H1505.74H1531.11L1531.11 1901.52H1556.48V1876.15V1850.78V1825.41H1531.11L1531.11 1850.78H1505.74ZM1074.44 1698.56H1099.81V1723.93H1125.18V1749.3H1099.81V1774.67H1074.44H1049.07V1800.04H1023.7V1774.67V1749.3V1723.93H998.333V1698.56V1673.19H1023.7H1049.07H1074.44V1698.56ZM998.333 1926.89H1023.7H1049.07V1952.26H1074.44H1099.81V1977.63H1125.18H1150.56V2003H1125.18H1099.81H1074.44V1977.63H1049.07V1952.26H1023.7V1977.63H998.333V2003H972.963H947.592V1977.63H972.963H998.333V1952.26V1926.89ZM1074.44 1850.78H1099.81H1125.18V1876.15V1901.52H1099.81V1876.15H1074.44H1049.07V1850.78H1074.44Z" fill="#6B3E75"/>
<rect width="25.3704" height="25.3704" transform="matrix(-1 0 0 1 1429.63 785.222)" fill="#625565"/>
<rect width="25.3704" height="25.3704" transform="matrix(-1 0 0 1 1404.26 810.593)" fill="#625565"/>
<rect width="25.3704" height="25.3704" transform="matrix(-1 0 0 1 1455 912.074)" fill="#625565"/>
<rect width="25.3704" height="25.3704" transform="matrix(-1 0 0 1 1175.93 988.185)" fill="#625565"/>
<rect width="25.3704" height="25.3704" transform="matrix(-1 0 0 1 1175.93 1013.56)" fill="#625565"/>
<rect width="25.3704" height="25.3704" transform="matrix(-1 0 0 1 1201.3 1038.93)" fill="#625565"/>
<rect width="25.3704" height="25.3704" transform="matrix(-1 0 0 1 1378.89 962.815)" fill="#625565"/>
<rect width="25.3704" height="25.3704" transform="matrix(-1 0 0 1 1404.26 1292.63)" fill="#625565"/>
<rect width="25.3704" height="25.3704" transform="matrix(-1 0 0 1 1353.52 1318)" fill="#625565"/>
<rect width="25.3704" height="25.3704" transform="matrix(-1 0 0 1 1252.04 1292.63)" fill="#625565"/>
<rect width="25.3704" height="25.3704" transform="matrix(-1 0 0 1 1201.3 1267.26)" fill="#625565"/>
<rect width="25.3704" height="25.3704" transform="matrix(-1 0 0 1 1480.37 937.444)" fill="#625565"/>
<rect width="25.3704" height="25.3704" transform="matrix(-1 0 0 1 1404.26 988.185)" fill="#625565"/>
<rect width="25.3704" height="25.3704" transform="matrix(-1 0 0 1 1404.26 1318)" fill="#625565"/>
<rect width="25.3704" height="25.3704" transform="matrix(-1 0 0 1 1353.52 1343.37)" fill="#625565"/>
<rect width="25.3704" height="25.3704" transform="matrix(-1 0 0 1 1252.04 1318)" fill="#625565"/>
<rect width="25.3704" height="25.3704" transform="matrix(-1 0 0 1 1201.3 1292.63)" fill="#625565"/>
<path fill-rule="evenodd" clip-rule="evenodd" d="M1252.04 633H1277.41H1302.78V658.37H1328.15V683.741V709.111H1353.52V734.481V759.852H1378.89V785.222V810.593V835.963V861.333V886.704H1404.26H1429.63V861.333H1455H1480.37H1505.74H1531.11V886.704H1556.48V912.074H1531.11H1505.74H1480.37H1455H1429.63V937.444H1404.26V962.815H1378.89H1353.52L1353.52 988.185H1328.15V1013.56H1302.78H1277.41V1038.93H1252.04H1226.67H1201.3V1013.56H1175.92V988.185H1150.55H1125.18H1099.81V962.815H1074.44V937.444H1049.07V912.074V886.704H1074.44V912.074H1099.81V937.444L1125.18 937.444V962.815H1150.55L1150.55 937.444V912.074H1125.18V886.704H1099.81V861.333V835.963H1125.18V810.593V785.222V759.852H1150.55V734.481V709.111H1175.92V683.741V658.37H1201.3H1226.67L1226.67 633H1252.04ZM1175.92 734.481H1201.3V709.111H1226.67V683.741H1252.04H1277.41V709.111H1302.78V734.481H1328.15V759.852V785.222V810.593V835.963V861.333V886.704H1353.52L1353.52 912.074H1328.15V937.444L1302.78 937.444V962.815H1277.41V988.185H1252.04V962.815H1226.67V937.444L1201.3 937.444V912.074V886.704H1175.92V861.333V835.963V810.593V785.222V759.852V734.481Z" fill="#3E3546"/>
<path fill-rule="evenodd" clip-rule="evenodd" d="M1353.52 658.37H1328.15V683.74V709.111H1353.52V734.481V759.852H1378.89V785.222V810.592L1404.26 810.592V785.222H1429.63V810.592L1404.26 810.592V835.963H1378.89V861.333V886.703H1404.26H1429.63V861.333H1455H1480.37H1505.74V835.963H1480.37V810.592L1455 810.592V785.222V759.852H1429.63V734.481H1404.26V709.111L1378.89 709.111V683.74L1353.52 683.74V658.37ZM1277.41 683.74H1252.04H1226.67V709.111H1252.04H1277.41V683.74ZM1302.78 734.481L1302.78 709.111L1277.41 709.111V734.481H1302.78ZM1201.3 886.703V912.074V937.444H1226.67V962.815H1252.04V988.185H1277.41V962.815H1302.78V937.444H1328.15V912.074H1353.52V886.703H1328.15V861.333V835.963V810.592V785.222V759.852V734.481H1302.78V759.852V785.222V810.592V835.963V861.333L1302.78 886.703H1277.41V912.074H1252.04H1226.67V886.703H1201.3ZM1201.3 734.481H1175.93V759.852V785.222V810.592V835.963V861.333V886.703H1201.3V861.333V835.963V810.592V785.222V759.852V734.481ZM1201.3 734.481V709.111L1226.67 709.111V734.481H1201.3ZM1074.44 861.333H1099.82V886.703H1125.19V912.074H1150.56V937.444V962.815H1125.19V937.444H1099.82V912.074H1074.44V886.703V861.333ZM1150.56 988.185H1125.19H1099.82V1013.56H1125.19V1038.93H1150.56V1013.56V988.185ZM1150.56 1064.3V1038.93H1175.93V1013.56H1201.3V1038.93H1226.67H1252.04H1277.41V1013.56H1302.78H1328.15V988.185H1353.52H1378.89V962.815H1404.26V937.444H1429.63L1455 937.444V912.074H1480.37H1505.74H1531.11H1556.48V937.444H1531.11H1505.74V962.815H1480.37V937.444H1455V962.815V988.185H1429.63V1013.56H1404.26V988.185H1378.89V1013.56V1038.93H1353.52V1064.3H1328.15V1089.67H1302.78H1277.41V1115.04H1252.04H1226.67H1201.3V1089.67H1175.93V1064.3H1150.56ZM1150.56 1064.3V1089.67V1115.04V1140.41H1125.19H1099.82V1165.78V1191.15H1074.44V1165.78V1140.41V1115.04V1089.67V1064.3H1099.82V1038.93L1125.19 1038.93V1064.3H1150.56ZM1175.93 1064.3V1038.93L1201.3 1038.93V1064.3H1175.93ZM1074.44 962.815V988.185H1099.82V962.815H1074.44ZM1074.44 962.815V937.444H1049.07V962.815H1074.44ZM1581.85 1595.87H1607.22V1621.24H1581.85H1556.48V1597.07H1531.11V1571.7H1556.48V1570.5V1545.12V1520.96H1531.11V1495.59V1470.22H1505.74V1444.85H1480.37V1419.48H1505.74V1444.85H1531.11L1531.11 1470.22H1556.48V1495.59V1519.75H1581.85V1545.12V1570.5V1595.87ZM1429.63 1267.26H1455V1292.63H1429.63V1318H1404.26V1292.63H1429.63V1267.26ZM1302.78 1343.37H1328.15V1368.74H1302.78V1343.37ZM1302.78 1343.37L1302.78 1318H1277.41H1252.04V1343.37H1277.41H1302.78ZM1277.41 1520.96H1252.04V1546.33H1277.41V1520.96ZM1252.04 1520.96H1226.67V1495.59H1252.04V1520.96ZM1226.67 1292.63H1201.3V1318H1226.67V1292.63ZM1150.56 1241.89H1175.93V1267.26H1150.56V1241.89ZM1328.15 1394.11H1353.52H1378.89V1419.48H1353.52V1444.85H1328.15V1470.22H1302.78V1495.59H1277.41V1470.22H1252.04V1444.85H1226.67V1419.48V1394.11H1201.3V1368.74H1226.67V1394.11H1252.04V1419.48H1277.41H1302.78L1328.15 1419.48V1394.11ZM1505.74 1064.3H1531.11V1089.67H1556.48V1115.04H1531.11L1531.11 1140.41V1165.78V1191.15H1505.74V1165.78V1140.41H1480.37V1115.04H1455V1089.67H1480.37V1064.3H1505.74ZM1759.44 1394.11H1734.07V1419.48V1444.85H1759.44H1784.82V1419.48V1394.11H1759.44ZM1581.85 1444.85H1607.22H1632.59V1470.22V1495.59H1607.22H1581.85V1470.22V1444.85Z" fill="#2E222F"/>
<path fill-rule="evenodd" clip-rule="evenodd" d="M1252.04 709.111H1277.41V734.481V759.851V785.222H1252.04V759.851H1226.67V759.852V785.222H1201.3V759.852V734.481H1226.67V734.481V709.111H1252.04H1252.04ZM1302.78 734.481H1277.41V759.852V785.222V810.592H1302.78V785.222V759.852V734.481Z" fill="#9BABB2"/>
<path fill-rule="evenodd" clip-rule="evenodd" d="M1252.04 912.074H1277.41V886.703V861.333V835.963H1252.04V861.333H1226.67V835.963H1201.3V861.333V886.704H1226.67V912.074H1252.04H1252.04ZM1302.78 886.704H1277.41V861.333V835.963V810.592H1302.78V835.963V861.333V886.704Z" fill="#C7DCD0"/>
<path fill-rule="evenodd" clip-rule="evenodd" d="M1226.67 785.222H1252.04V810.593H1226.67V785.222ZM1226.67 810.593H1252.04V835.963H1226.67V810.593Z" fill="#6B3E75"/>
<path fill-rule="evenodd" clip-rule="evenodd" d="M1252.04 759.852H1226.67V785.222H1252.04V759.852ZM1252.04 785.222V810.592H1277.41V785.222L1252.04 785.222ZM1226.67 785.222L1226.67 810.592H1201.3V785.222L1226.67 785.222Z" fill="#E83B3B"/>
<path fill-rule="evenodd" clip-rule="evenodd" d="M1226.67 861.333H1252.04V835.963H1226.67V861.333ZM1226.67 835.963L1226.67 810.593H1201.3V835.963H1226.67ZM1252.04 835.963L1252.04 810.593H1277.41V835.963H1252.04Z" fill="#FB6B1D"/>
<rect width="25.3704" height="25.3704" transform="matrix(-1 0 0 1 1099.81 1597.07)" fill="#905EA9"/>
<rect width="25.3704" height="25.3704" transform="matrix(-1 0 0 1 1099.81 1622.44)" fill="#905EA9"/>
<rect width="25.3704" height="25.3704" transform="matrix(-1 0 0 1 1099.81 1647.81)" fill="#905EA9"/>
<rect width="25.3704" height="25.3704" transform="matrix(-1 0 0 1 1074.44 1977.63)" fill="#905EA9"/>
<rect width="25.3704" height="25.3704" transform="matrix(-1 0 0 1 1099.81 1673.19)" fill="#905EA9"/>
<rect width="25.3704" height="25.3704" transform="matrix(-1 0 0 1 1074.44 1597.07)" fill="#905EA9"/>
<rect width="25.3704" height="25.3704" transform="matrix(-1 0 0 1 1074.44 1622.44)" fill="#905EA9"/>
<rect width="25.3704" height="25.3704" transform="matrix(-1 0 0 1 1049.07 1952.26)" fill="#905EA9"/>
<rect width="25.3704" height="25.3704" transform="matrix(-1 0 0 1 1074.44 1647.81)" fill="#905EA9"/>
<rect width="25.3704" height="25.3704" transform="matrix(-1 0 0 1 1049.07 1977.63)" fill="#905EA9"/>
<rect width="25.3704" height="25.3704" transform="matrix(-1 0 0 1 998.333 1952.26)" fill="#905EA9"/>
<rect width="25.3704" height="25.3704" transform="matrix(-1 0 0 1 1049.07 1597.07)" fill="#905EA9"/>
<rect width="25.3704" height="25.3704" transform="matrix(-1 0 0 1 1049.07 1622.44)" fill="#905EA9"/>
<rect width="25.3704" height="25.3704" transform="matrix(-1 0 0 1 1049.07 1647.81)" fill="#905EA9"/>
<rect width="25.3704" height="25.3704" transform="matrix(-1 0 0 1 1023.7 1647.81)" fill="#905EA9"/>
<rect width="25.3704" height="25.3704" transform="matrix(-1 0 0 1 1023.7 1977.63)" fill="#905EA9"/>
<rect width="25.3704" height="25.3704" transform="matrix(-1 0 0 1 972.963 1952.26)" fill="#905EA9"/>
<rect width="25.3704" height="25.3704" transform="matrix(-1 0 0 1 947.593 1977.63)" fill="#905EA9"/>
<rect width="25.3704" height="25.3704" transform="matrix(-1 0 0 1 1049.07 1571.7)" fill="#905EA9"/>
<rect width="25.3704" height="25.3704" transform="matrix(-1 0 0 1 1150.56 1520.96)" fill="#905EA9"/>
<rect width="25.3704" height="25.3704" transform="matrix(-1 0 0 1 1125.19 1495.59)" fill="#905EA9"/>
<rect width="25.3704" height="25.3704" transform="matrix(-1 0 0 1 1125.19 1546.33)" fill="#905EA9"/>
<rect width="25.3704" height="25.3704" transform="matrix(-1 0 0 1 1125.19 1520.96)" fill="#905EA9"/>
<rect width="25.3704" height="25.3704" transform="matrix(-1 0 0 1 1505.74 1597.07)" fill="#905EA9"/>
<rect width="25.3704" height="25.3704" transform="matrix(-1 0 0 1 1505.74 1622.44)" fill="#905EA9"/>
<rect width="25.3704" height="25.3704" transform="matrix(-1 0 0 1 1505.74 1647.81)" fill="#905EA9"/>
<rect width="25.3704" height="25.3704" transform="matrix(-1 0 0 1 1480.37 1952.26)" fill="#905EA9"/>
<rect width="25.3704" height="25.3704" transform="matrix(-1 0 0 1 1505.74 1673.19)" fill="#905EA9"/>
<rect width="25.3704" height="25.3704" transform="matrix(-1 0 0 1 1480.37 1977.63)" fill="#905EA9"/>
<rect width="25.3704" height="25.3704" transform="matrix(-1 0 0 1 1556.48 1977.63)" fill="#905EA9"/>
<rect width="25.3704" height="25.3704" transform="matrix(-1 0 0 1 1531.11 1597.07)" fill="#905EA9"/>
<rect width="25.3704" height="25.3704" transform="matrix(-1 0 0 1 1531.11 1622.44)" fill="#905EA9"/>
<rect width="25.3704" height="25.3704" transform="matrix(-1 0 0 1 1531.11 1647.81)" fill="#905EA9"/>
<rect width="25.3704" height="25.3704" transform="matrix(-1 0 0 1 1531.11 1673.19)" fill="#905EA9"/>
<rect width="25.3704" height="25.3704" transform="matrix(-1 0 0 1 1505.74 1571.7)" fill="#905EA9"/>
<rect width="25.3704" height="25.3704" transform="matrix(-1 0 0 1 1125.19 1571.7)" fill="#905EA9"/>
<rect width="25.3704" height="25.3704" transform="matrix(-1 0 0 1 1099.81 1470.22)" fill="#905EA9"/>
<rect width="25.3704" height="25.3704" transform="matrix(-1 0 0 1 1099.81 1495.59)" fill="#905EA9"/>
<rect width="25.3704" height="25.3704" transform="matrix(-1 0 0 1 1099.81 1546.33)" fill="#905EA9"/>
<rect width="25.3704" height="25.3704" transform="matrix(-1 0 0 1 1074.44 1546.33)" fill="#905EA9"/>
<rect width="25.3704" height="25.3704" transform="matrix(-1 0 0 1 1099.81 1520.96)" fill="#905EA9"/>
<rect width="25.3704" height="25.3704" transform="matrix(-1 0 0 1 1480.37 1597.07)" fill="#905EA9"/>
<rect width="25.3704" height="25.3704" transform="matrix(-1 0 0 1 1480.37 1622.44)" fill="#905EA9"/>
<rect width="25.3704" height="25.3704" transform="matrix(-1 0 0 1 1480.37 1647.81)" fill="#905EA9"/>
<rect width="25.3704" height="25.3704" transform="matrix(-1 0 0 1 1480.37 1673.19)" fill="#905EA9"/>
<rect width="25.3704" height="25.3704" transform="matrix(-1 0 0 1 1455 1977.63)" fill="#905EA9"/>
<rect width="25.3704" height="25.3704" transform="matrix(-1 0 0 1 1531.11 1977.63)" fill="#905EA9"/>
<rect width="25.3704" height="25.3704" transform="matrix(-1 0 0 1 1480.37 1571.7)" fill="#905EA9"/>
<rect width="25.3704" height="25.3704" transform="matrix(-1 0 0 1 1099.81 1571.7)" fill="#905EA9"/>
<rect width="25.3704" height="25.3704" transform="matrix(-1 0 0 1 1074.44 1571.7)" fill="#905EA9"/>
<rect width="25.3704" height="25.3704" transform="matrix(-1 0 0 1 1074.44 1520.96)" fill="#905EA9"/>
<rect width="25.3704" height="25.3704" transform="matrix(-1 0 0 1 1455 1597.07)" fill="#905EA9"/>
<path fill-rule="evenodd" clip-rule="evenodd" d="M1480.37 1520.96H1505.74V1546.33H1531.11V1571.7H1505.74H1480.37H1455V1597.07H1429.63H1404.26V1622.44H1378.89V1647.81H1353.52L1353.52 1673.19H1328.15V1647.81H1302.78V1622.44V1597.07H1328.15V1571.7H1353.52H1378.89H1404.26H1429.63H1455V1546.33H1429.63V1520.96H1455H1480.37ZM1378.89 1749.3H1353.52L1353.52 1723.93L1328.15 1723.93V1698.56H1302.78V1723.93V1749.3H1328.15V1774.67V1800.04H1353.52H1378.89V1774.67V1749.3ZM1429.63 1850.78H1404.26H1378.89V1876.15H1404.26V1901.52H1429.63V1876.15V1850.78ZM1429.63 1901.52V1926.89H1455V1901.52H1429.63Z" fill="white"/>
<path fill-rule="evenodd" clip-rule="evenodd" d="M1455 1546.33H1429.63H1404.26H1378.89V1571.7H1404.26H1429.63H1455V1546.33Z" fill="white"/>
<rect width="25.3704" height="25.3704" transform="matrix(-1 0 0 1 1455 1470.22)" fill="#C7DCD0"/>
<rect width="25.3704" height="25.3704" transform="matrix(-1 0 0 1 1404.26 1470.22)" fill="#C7DCD0"/>
<rect width="25.3704" height="25.3704" transform="matrix(-1 0 0 1 1378.89 1495.59)" fill="#C7DCD0"/>
<rect width="25.3704" height="25.3704" transform="matrix(-1 0 0 1 1353.52 1495.59)" fill="#C7DCD0"/>
<rect width="25.3704" height="25.3704" transform="matrix(-1 0 0 1 1328.15 1647.81)" fill="#C7DCD0"/>
<rect width="25.3704" height="25.3704" transform="matrix(-1 0 0 1 1328.15 1520.96)" fill="#C7DCD0"/>
<rect width="25.3704" height="25.3704" transform="matrix(-1 0 0 1 1404.26 1495.59)" fill="#C7DCD0"/>
<rect width="25.3704" height="25.3704" transform="matrix(-1 0 0 1 1378.89 1520.96)" fill="#C7DCD0"/>
<rect width="25.3704" height="25.3704" transform="matrix(-1 0 0 1 1353.52 1673.19)" fill="#C7DCD0"/>
<rect width="25.3704" height="25.3704" transform="matrix(-1 0 0 1 1404.26 1800.04)" fill="#C7DCD0"/>
<rect width="25.3704" height="25.3704" transform="matrix(-1 0 0 1 1353.52 1698.56)" fill="#C7DCD0"/>
<rect width="25.3704" height="25.3704" transform="matrix(-1 0 0 1 1404.26 1825.41)" fill="#C7DCD0"/>
<rect width="25.3704" height="25.3704" transform="matrix(-1 0 0 1 1353.52 1520.96)" fill="#C7DCD0"/>
<rect width="25.3704" height="25.3704" transform="matrix(-1 0 0 1 1328.15 1673.19)" fill="#C7DCD0"/>
<rect width="25.3704" height="25.3704" transform="matrix(-1 0 0 1 1378.89 1800.04)" fill="#C7DCD0"/>
<rect width="25.3704" height="25.3704" transform="matrix(-1 0 0 1 1277.41 1673.19)" fill="#C7DCD0"/>
<rect width="25.3704" height="25.3704" transform="matrix(-1 0 0 1 1252.04 1698.56)" fill="#C7DCD0"/>
<rect width="25.3704" height="25.3704" transform="matrix(-1 0 0 1 1328.15 1546.33)" fill="#C7DCD0"/>
<path fill-rule="evenodd" clip-rule="evenodd" d="M1480.37 1444.85H1505.74V1470.22H1480.37L1480.37 1495.59H1455V1470.22V1444.85H1480.37ZM1429.63 1470.22H1404.26V1495.59V1520.96H1429.63V1495.59V1470.22ZM1277.41 1520.96H1302.78V1546.33V1571.7V1597.07V1622.44V1647.81V1673.18V1698.56V1723.93V1749.3H1328.15V1774.67V1800.04H1353.52V1825.41H1378.89V1850.78V1876.15H1404.26V1901.52H1429.63V1926.89H1404.26H1378.89L1378.89 1901.52H1353.52L1353.52 1876.15H1328.15V1850.78H1302.78V1825.41H1277.41V1800.04H1252.04V1774.67H1226.67V1749.3V1723.93L1252.04 1723.93V1698.56H1277.41V1673.18H1252.04V1647.81H1226.67V1622.44V1597.07V1571.7H1252.04V1546.33L1277.41 1546.33V1520.96Z" fill="#9BABB2"/>
<path fill-rule="evenodd" clip-rule="evenodd" d="M1531.11 1520.96H1556.48V1546.33V1571.7H1531.11V1546.33V1520.96Z" fill="#694F62"/>
<path fill-rule="evenodd" clip-rule="evenodd" d="M1531.11 1470.22H1505.74H1480.37V1495.59H1455H1429.63V1520.96H1455H1480.37H1505.74V1546.33H1531.11V1520.96V1495.59V1470.22ZM1378.89 1546.33H1404.26H1429.63V1520.96H1404.26H1378.89V1546.33ZM1328.15 1571.7H1353.52H1378.89V1546.33H1353.52H1328.15V1571.7ZM1328.15 1571.7H1302.78V1597.07H1328.15V1571.7ZM1226.67 1647.81H1252.04V1673.19H1226.67V1647.81Z" fill="#694F62"/>
</g>
<g clip-path="url(#clip2_112_3012)">
<path fill-rule="evenodd" clip-rule="evenodd" d="M1165.11 1551.11H1150.33V1565.89H1165.11V1551.11ZM1150.33 1565.89H1165.11V1580.67H1179.89V1565.89H1194.66V1580.67V1580.67V1595.44V1595.44V1610.22H1179.89H1179.89H1165.11V1595.44H1150.33V1580.67V1580.67V1565.89ZM1120.78 1610.22H1106V1625V1625V1639.78H1120.78V1625V1625V1610.22ZM1120.77 1639.78H1135.55V1654.56V1654.56V1669.33H1120.77V1654.56V1654.56V1639.78ZM1120.77 1669.33H1135.55V1684.11V1684.11V1698.89H1120.77V1684.11V1684.11V1669.33ZM1150.33 1669.33H1135.55V1684.11V1684.11V1698.89H1150.33V1684.11V1684.11V1669.33ZM1135.55 1698.89H1150.33H1150.33H1165.11V1713.67H1179.89H1179.89H1194.66V1728.44H1179.89H1179.89H1165.11H1165.11H1150.33V1713.67H1135.55V1698.89Z" fill="#4F4E46"/>
<path fill-rule="evenodd" clip-rule="evenodd" d="M884.33 1625H899.107V1639.78H884.33V1625ZM884.332 1639.78H899.107V1654.56V1654.56V1669.33H884.332H884.33H869.554V1654.56V1654.56V1639.78H884.33H884.332ZM1046.89 1684.11H1061.66V1698.89H1046.89V1684.11Z" fill="#4F3112"/>
<rect width="14.7778" height="14.7778" transform="matrix(-1 0 0 1 1061.67 1669.33)" fill="#36230F"/>
<path fill-rule="evenodd" clip-rule="evenodd" d="M574 1388.56H588.778V1403.33H574V1388.56ZM588.778 1403.33H574V1418.11V1418.11V1432.89H588.778V1447.67H603.555H603.556H618.333V1432.89H603.556V1418.11H588.778V1403.33ZM618.333 1447.67H603.555V1462.44H618.333V1477.22H633.11H633.111H647.888V1462.44H633.111V1447.67H618.333H618.333ZM662.665 1477.22H647.89V1492V1492V1506.78H662.665H662.668H677.443V1492V1492V1477.22H662.668H662.665ZM692.223 1506.78H707V1521.56V1521.56V1536.33H692.223H692.223H677.445V1521.56V1521.56V1506.78H692.223H692.223ZM736.556 1536.33H721.778H721.778H707H707H692.223V1551.11H707H707H721.778H721.778H736.556V1536.33ZM677.443 1506.78H662.665V1521.56H677.443V1506.78ZM633.11 1477.22H647.888V1492H633.11V1477.22ZM692.223 1492H677.445V1506.78H692.223V1492ZM707 1551.11H721.778V1565.89H707V1551.11Z" fill="#B0B0B0"/>
<path fill-rule="evenodd" clip-rule="evenodd" d="M736.556 1536.33H751.334V1551.11H736.556V1536.33ZM795.667 1595.44H780.889H780.889H766.111V1610.22V1610.22V1625H780.889H780.889H795.667V1610.22V1610.22V1595.44ZM751.334 1551.11H736.556V1565.89H751.334V1551.11ZM721.777 1551.11H736.555V1565.89V1565.89V1580.67V1580.67V1595.44H721.779H721.777H707.001V1580.67V1580.67V1565.89H721.777V1551.11Z" fill="#6A6A67"/>
<path fill-rule="evenodd" clip-rule="evenodd" d="M795.665 1551.11H810.442V1565.89H795.665H795.665H780.887H780.887H766.109V1551.11H780.887H780.887H795.665H795.665ZM810.442 1565.89H795.665H795.665H780.887V1580.67H795.665H795.665H810.442V1565.89Z" fill="#999999"/>
<path fill-rule="evenodd" clip-rule="evenodd" d="M810.442 1565.89H825.22V1580.67H810.442V1565.89ZM810.442 1580.67H825.22V1595.44H810.442H810.442H795.665H795.665H780.887V1580.67H795.665H795.665H810.442H810.442Z" fill="#83837B"/>
<path fill-rule="evenodd" clip-rule="evenodd" d="M1179.89 1373.78H1194.66V1388.56H1179.89H1179.89H1165.11H1165.11H1150.33V1373.78H1165.11H1165.11H1179.89H1179.89ZM1150.33 1388.56H1135.55V1403.33H1150.33V1388.56ZM1120.77 1403.33H1135.55V1418.11V1418.11V1432.89H1120.77V1418.11V1418.11V1403.33ZM1106 1432.89H1120.77V1447.67V1447.67V1462.44H1106V1447.67V1447.67V1432.89ZM1106 1462.44H1120.77V1477.22V1477.22V1492H1106V1477.22V1477.22V1462.44Z" fill="#A7A7A6"/>
<path fill-rule="evenodd" clip-rule="evenodd" d="M1150.33 1388.55H1165.11V1403.33H1150.33V1388.55ZM1165.11 1403.33H1150.33H1150.33H1135.56V1418.11V1418.11V1432.89V1432.89V1447.67H1150.33H1150.33H1165.11V1432.89V1432.89V1418.11V1418.11V1403.33ZM1209.44 1432.89V1432.89V1432.89V1418.11V1418.11V1403.33H1194.67H1194.67H1179.89H1179.89H1165.11V1418.11V1418.11V1432.89V1432.89V1447.67H1179.89H1179.89H1194.67H1194.67H1209.44V1447.67H1194.67H1194.67H1179.89H1179.89H1165.11V1462.44V1462.44V1477.22H1179.89H1179.89H1194.67H1194.67H1209.44V1477.22H1194.67H1194.67H1179.89H1179.89H1165.11V1492V1492V1506.78H1179.89H1179.89H1194.67H1194.67H1209.44H1209.44H1224.22L1224.22 1506.78H1239V1492H1224.22L1224.22 1492V1477.22V1477.22V1462.44V1462.44V1447.67H1209.44V1447.67H1224.22V1432.89H1209.44ZM1224.22 1506.78H1209.44H1209.44H1194.67H1194.67H1179.89H1179.89H1165.11V1521.55V1521.56V1536.33H1179.89H1179.89H1194.67H1194.67H1209.44H1209.44H1224.22V1536.33H1209.44H1209.44H1194.67H1194.67H1179.89H1179.89H1165.11V1551.11H1179.89H1179.89H1194.67H1194.67H1209.44H1209.44H1224.22V1551.11H1209.44H1209.44H1194.67H1194.67H1179.89H1179.89H1165.11V1565.89V1565.89V1580.67H1179.89V1565.89H1194.67V1580.67H1209.44H1209.44H1224.22V1580.67H1209.44H1209.44H1194.67V1595.44H1209.44H1209.44H1224.22L1239 1595.44V1580.67V1580.67V1565.89H1224.22V1565.89H1239V1551.11H1224.22V1551.11H1239V1536.33V1536.33V1521.56H1224.22L1224.22 1521.56V1521.55M1224.22 1625V1625V1639.78H1209.44H1209.44H1194.67H1194.67H1179.89H1179.89H1165.11V1625V1625V1610.22H1179.89H1179.89H1194.67V1595.44H1209.44H1209.44H1224.22L1239 1595.44V1610.22L1224.22 1610.22V1625ZM1135.56 1639.78V1625V1625V1610.22V1610.22V1595.44H1150.33H1150.33H1165.11V1610.22V1610.22V1625V1625V1639.78H1150.33H1150.33H1135.56ZM1165.11 1669.33H1179.89H1179.89H1194.67H1194.67H1209.44H1209.44H1224.22V1684.11H1209.44H1209.44H1194.67H1194.67H1179.89H1179.89H1165.11V1669.33ZM1165.11 1654.56H1150.33V1654.56H1165.11V1669.33V1669.33V1684.11H1150.33V1669.33V1669.33V1669.33H1135.56V1654.56V1654.55V1639.78H1150.33H1150.33H1165.11V1654.56ZM1224.22 1639.78H1209.44H1209.44H1194.67H1194.67H1179.89H1179.89H1165.11V1654.55V1654.56V1669.33H1179.89H1179.89H1194.67H1194.67H1209.44H1209.44H1224.22V1654.56V1654.55V1639.78ZM1165.11 1698.89V1713.67H1179.89H1179.89H1194.67H1194.67H1209.44V1698.89V1698.89V1684.11H1194.67H1194.67H1179.89H1179.89H1165.11V1698.89V1698.89ZM1135.56 1580.67H1150.33V1595.44H1135.56V1580.67ZM1150.33 1580.67V1565.89V1565.89V1551.11H1135.56V1565.89V1565.89V1580.67H1150.33ZM1135.56 1506.78H1150.33H1150.33H1165.11V1521.55V1521.56V1536.33H1150.33H1150.33H1135.56V1521.56V1521.55V1506.78ZM1135.56 1477.22H1150.33H1150.33H1165.11V1492V1492V1506.78H1150.33H1150.33H1135.56V1492V1492V1477.22ZM1150.33 1447.67H1135.56V1462.44V1462.44V1477.22H1150.33H1150.33H1165.11V1462.44V1462.44V1447.67H1150.33H1150.33ZM1150.33 1536.33H1135.56V1551.11H1150.33H1150.33H1165.11V1536.33H1150.33H1150.33ZM1179.89 1388.55H1165.11V1403.33H1179.89H1179.89H1194.67H1194.67H1209.44V1388.55H1194.67H1194.67H1179.89H1179.89ZM1135.55 1432.89H1120.78V1447.67H1135.55V1432.89ZM1120.78 1447.67H1135.55V1462.44V1462.44V1477.22V1477.22V1492H1120.78V1477.22V1477.22V1462.44V1462.44V1447.67ZM1135.55 1551.11V1551.11V1536.33V1536.33V1521.56L1120.78 1521.56V1521.56H1135.55V1506.78V1506.78V1492H1120.78V1492H1106V1506.78H1120.78V1506.78V1506.78H1106V1521.56V1521.56V1536.33V1536.33V1551.11L1120.78 1551.11V1551.11H1106V1565.89V1565.89V1580.67L1120.78 1580.67H1135.55V1565.89L1120.78 1565.89V1565.89H1135.55V1551.11ZM1120.78 1580.67L1135.55 1580.67V1595.44L1120.78 1595.44V1595.44H1135.55V1610.22V1610.22V1625H1120.78V1610.22V1610.22H1106V1595.44V1595.44V1580.67H1120.78ZM1135.55 1625H1120.78V1639.78H1135.55V1625ZM1165.11 1684.11H1150.33V1698.89H1165.11V1684.11ZM1224.22 1506.78L1239 1506.78V1521.56L1224.22 1521.56" fill="#6A6A67"/>
<rect width="14.7778" height="14.7778" transform="matrix(-1 0 0 1 973 1388.56)" fill="#A7A7A6"/>
<rect width="14.7778" height="14.7778" transform="matrix(-1 0 0 1 987.778 1388.56)" fill="#A7A7A6"/>
<rect width="14.7778" height="14.7778" transform="matrix(-1 0 0 1 1002.56 1388.56)" fill="#A7A7A6"/>
<path fill-rule="evenodd" clip-rule="evenodd" d="M1002.55 1403.33H1017.33V1418.11H1002.55H1002.55H987.776H987.776H972.998H972.998H958.221V1403.33H972.998H972.998H987.776H987.776H1002.55H1002.55ZM958.219 1403.33H943.441V1418.11H958.219V1403.33ZM972.998 1418.11H958.221V1432.89H972.998H972.998H987.776V1418.11H972.998H972.998Z" fill="#83837B"/>
<path fill-rule="evenodd" clip-rule="evenodd" d="M973 1595.44H987.778V1610.22H973H973H958.222V1595.44H973H973ZM987.778 1610.22H973H973H958.222V1625H973H973H987.778V1610.22Z" fill="#6A6A67"/>
<path fill-rule="evenodd" clip-rule="evenodd" d="M958.22 1580.67H943.442H943.442H928.665H928.664H913.887H913.887H899.109V1595.44H913.887H913.887H928.664H928.665H943.442H943.442H958.22V1580.67ZM958.22 1595.44H943.442H943.442H928.664V1610.22H943.442H943.442H958.22V1595.44ZM987.774 1595.44H1002.55V1610.22V1610.22V1625H987.774V1610.22V1610.22V1595.44ZM1002.55 1595.44H1017.33H1017.33H1032.11V1610.22H1046.89V1624.3H1061.66V1639.07H1046.89V1639.78H1032.11V1625H1017.33H1017.33H1002.55V1610.22V1610.22V1595.44Z" fill="#583B1E"/>
<path fill-rule="evenodd" clip-rule="evenodd" d="M973.002 1432.89H958.225V1447.67H973.002V1432.89ZM928.67 1477.22H913.892V1492H928.67V1477.22ZM928.67 1492H913.892V1506.78V1506.78V1521.56H928.67H928.67H943.447V1506.78V1506.78V1492H928.67H928.67ZM943.447 1521.56H928.67H928.67H913.892V1536.33V1536.33V1551.11V1551.11V1565.89H928.67V1551.11V1551.11V1536.33H943.447V1521.56ZM928.668 1595.44H913.89V1610.22H928.668V1595.44ZM958.221 1610.22H943.445H943.443H928.668V1625H943.443H943.445H958.221V1610.22ZM1032.11 1625H1017.33H1017.33H1002.56H1002.56H987.778H987.778H973H973H958.223V1639.78H973H973H987.778V1654.56H1002.56H1002.56H1017.33H1017.33H1032.11V1639.78V1639.78V1625ZM1032.11 1639.78H1046.89V1654.56H1032.11V1639.78ZM1046.89 1654.56H1032.11V1669.33V1669.33V1684.11H1046.89V1669.33V1669.33V1654.56ZM1046.89 1684.11H1032.11V1698.89V1698.89V1713.67V1713.67V1728.44H1046.89H1046.89H1061.67V1713.67V1713.67V1698.89H1046.89V1684.11ZM1032.11 1728.44H1046.89V1743.22H1032.11V1728.44ZM1061.67 1876.22H1046.89H1046.89H1032.11V1891H1046.89V1905.78H1061.67V1891V1891V1876.22ZM1076.45 1905.78H1061.67V1920.56H1076.45H1076.45H1091.22V1905.78H1076.45H1076.45ZM1076.45 1920.56H1091.22V1935.33H1076.45H1076.45H1061.67V1920.56H1076.45H1076.45ZM1106 1935.33H1091.22H1091.22H1076.45V1950.11H1091.22H1106V1935.33ZM1106 1950.11H1120.78V1964.89V1964.89V1979.67H1106H1091.22V1964.89V1964.89V1950.11H1106ZM1106 1994.44V1979.67H1120.78V1994.44H1106ZM1032.11 1669.33H1017.33V1684.11H1032.11V1669.33ZM1017.33 1684.11H1032.11V1698.89V1698.89V1713.67V1713.67V1728.44H1017.33V1713.67V1713.67V1698.89V1698.89V1684.11ZM825.223 1831.89H810.445V1846.67H825.223V1831.89ZM810.443 1831.89V1846.67H795.665V1831.89V1831.89V1817.11H810.443V1831.89V1831.89ZM795.665 1846.67H810.443V1861.44H795.665V1846.67ZM825.223 1861.44H810.445V1876.22H825.223V1861.44ZM810.445 1876.22H825.223V1891V1891V1905.78H810.445V1891V1891V1876.22ZM825.223 1935.33H840V1950.11H825.223V1935.33ZM840 1964.89V1950.11H825.223V1964.89V1964.89V1979.67H840H854.778V1964.89H840ZM869.556 1979.67H854.778H840H825.223H810.445V1994.44H825.223H840H854.778H869.556V1979.67ZM810.445 2009.22V1994.44H825.223H840H854.778H869.556V2009.22V2024H854.778H840H825.223V2009.22H810.445ZM795.665 1994.44H810.443V2009.22H795.665V1994.44ZM987.778 1654.56H1002.56V1669.33H987.778V1654.56ZM899.11 1595.44H913.888V1610.22H899.11V1595.44ZM913.888 1610.22H899.11V1625V1625V1639.78V1639.78V1654.56H913.888V1639.78V1639.78V1625V1625V1610.22ZM928.668 1639.78H913.89V1654.56H928.668V1639.78ZM913.89 1654.56H928.668V1669.33V1669.33V1684.11H913.89V1669.33V1669.33V1654.56ZM913.89 1684.11H928.668V1698.89H913.89V1684.11ZM899.11 1669.33H884.335V1684.11H899.11H899.113H913.888V1669.33V1669.33V1654.56H899.11V1669.33ZM884.335 1684.11H899.11H899.113H913.888V1698.89V1698.89V1713.67H899.11V1698.89H884.335V1684.11ZM869.555 1669.33H884.333V1684.11H869.555V1669.33ZM884.333 1684.11H869.555V1698.89H884.333V1684.11Z" fill="#41280F"/>
<path fill-rule="evenodd" clip-rule="evenodd" d="M958.223 1418.11H943.445V1432.89H958.223V1418.11ZM958.223 1432.89H943.445V1447.67H928.668V1462.44V1462.44V1477.22H943.445H943.446H958.223V1462.44V1462.44V1447.67V1447.67V1432.89ZM943.446 1477.22H928.668V1492H943.446V1477.22ZM913.888 1610.22H928.666V1625H913.888V1610.22ZM928.666 1625H913.888V1639.78H928.666V1625ZM928.668 1625H943.445H943.446H958.223V1639.78H972.999V1654.55V1654.56V1669.33H958.223H958.221H943.446H943.445H928.668V1654.56V1654.55V1639.78V1639.78V1625ZM928.668 1669.33H943.445H943.446H958.221H958.223H972.999V1684.11V1684.11V1698.89H958.223H958.221H943.446H943.445H928.668V1684.11V1684.11V1669.33ZM928.668 1698.89H943.445H943.446H958.221H958.223H972.999V1713.67V1713.67V1728.44H958.223H958.221H943.446H943.445H928.668V1713.67V1713.67V1698.89ZM928.668 1728.44H943.445H943.446H958.221H958.223H972.999V1743.22V1743.22V1758H958.223H958.221H943.446H943.445H928.668V1743.22V1743.22V1728.44ZM928.668 1758H943.445H943.446H958.221H958.223H972.999V1772.78H958.223H958.221H943.446H943.445H928.668V1758ZM943.445 1772.78H928.668V1787.56H943.445H943.446H958.221H958.223H972.999V1772.78H958.223H958.221H943.446H943.445ZM913.888 1743.22H928.666V1758H913.888V1743.22ZM928.666 1758H913.888V1772.78H928.666V1758ZM913.888 1772.78H928.666V1787.56H913.888V1772.78ZM854.778 1802.33H840.001V1817.11H854.778V1802.33ZM840.001 1817.11H854.778V1831.89V1831.89V1846.67H869.556V1861.44H854.778H854.778H840.001H840.001H825.223V1846.67H840.001V1831.89V1831.89V1817.11ZM810.443 1846.67H825.221V1861.44H810.443V1846.67ZM825.223 1861.44H840.001H840.001H854.778H854.778H869.556V1876.22V1876.22V1891H854.778H854.778H840.001H840.001H825.223V1876.22V1876.22V1861.44ZM825.223 1891H840.001H840.001H854.778H854.778H869.556V1905.78V1905.78V1920.55V1920.56V1935.33H854.778H840.001H825.223V1920.56V1920.55V1905.78V1905.78V1891ZM840.001 1935.33V1950.11V1964.89H854.778H869.556H884.333V1950.11V1935.33H869.556H854.778H840.001ZM854.778 1964.89V1979.67H869.556H884.333V1964.89H869.556H854.778ZM987.778 1639.78H973.001V1654.55V1654.56V1669.33H987.778V1654.56V1654.55V1639.78ZM987.778 1669.33H973.001V1684.11V1684.11V1698.89H987.778H987.778H1002.56H1002.56H1017.33V1684.11V1684.11V1669.33H1002.56H1002.56H987.778H987.778ZM987.778 1698.89H973.001V1713.67V1713.67V1728.44H987.778H987.778H1002.56H1002.56H1017.33V1713.67V1713.67V1698.89H1002.56H1002.56H987.778H987.778ZM987.778 1728.44H973.001V1743.22V1743.22V1758H987.778H987.778H1002.56V1743.22V1743.22V1728.44H987.778H987.778ZM987.778 1758H973.001V1772.78H987.778H987.778H1002.56V1758H987.778H987.778ZM973.001 1772.78H987.778H987.778H1002.56V1787.56H987.778H987.778H973.001V1772.78ZM1061.67 1861.44H1046.89V1876.22H1061.67V1891H1076.44V1876.22V1876.22V1861.44H1061.67H1061.67ZM1061.67 1846.67H1076.44V1861.44H1061.67V1846.67ZM1091.22 1876.22H1076.45V1891H1091.22V1876.22ZM1061.67 1891H1076.44V1905.78H1061.67V1891ZM1091.22 1891H1076.45V1905.78H1091.22V1920.55V1920.56V1935.33H1106H1120.78V1920.55H1106V1905.78V1905.78V1891H1091.22H1091.22ZM1120.78 1950.11H1135.56V1964.89H1120.78V1950.11ZM1120.78 1935.33H1106V1950.11L1120.78 1950.11L1120.78 1935.33ZM1120.78 1964.89H1135.56V1979.67V1994.44H1120.78V1979.67V1964.89ZM1002.56 1654.55H1017.33H1017.33H1032.11V1669.33H1017.33H1017.33H1002.56V1654.55Z" fill="#633B13"/>
<path fill-rule="evenodd" clip-rule="evenodd" d="M810.446 1344.22H825.224V1359H810.446V1344.22ZM869.556 1344.93H854.779H854.778H840.001V1359.7H854.778H854.779H869.556V1344.93ZM884.334 1388.56H899.111V1403.33H884.334H884.334H869.556V1388.56H884.334H884.334ZM884.334 1403.33H869.556H869.556H854.778V1418.11V1418.11V1432.89H869.556V1418.11H884.334V1403.33ZM825.221 1403.33H839.999V1418.11H825.221V1403.33ZM854.779 1359.7H869.556V1374.48H854.779H854.778H840.001V1359.7H854.778H854.779ZM810.446 1359H825.224V1373.78H810.446V1359Z" fill="#1D1B10"/>
<path fill-rule="evenodd" clip-rule="evenodd" d="M884.335 1344.93H869.558V1359.7H884.335V1373.78H869.558V1388.56H884.335H884.335H899.113V1373.78H913.891V1359H899.113H899.113H884.335V1344.93ZM913.891 1388.56H899.113V1403.33H913.891V1388.56ZM913.892 1403.33H928.67V1418.11H943.446V1432.89H928.67H928.668H913.892V1418.11V1418.11V1403.33ZM928.668 1432.89H943.446V1447.67H928.668V1432.89ZM928.67 1447.67H913.892V1462.44H928.67V1447.67ZM899.113 1477.22H913.891V1492H899.113V1506.78H913.891V1521.56H899.113V1506.78H884.335V1521.56H869.558V1506.78H884.335V1492H899.113V1477.22ZM884.335 1521.56H869.558V1536.33H884.335V1521.56ZM869.558 1536.33H884.335V1551.11H869.558V1565.89H854.78V1551.11V1551.11V1536.33H869.558H869.558ZM869.558 1565.89H854.78H854.78H840.003V1580.67H854.78H854.78H869.558V1565.89ZM840.001 1565.89H825.223V1580.67H840.001V1565.89ZM840.003 1580.67H854.78V1595.44H840.003V1580.67ZM780.891 1580.67H766.113V1595.44H780.891V1580.67ZM751.335 1595.45H766.113V1610.22H751.335V1595.45ZM766.113 1536.33H751.335V1551.11H766.113V1536.33ZM736.558 1580.67H751.335V1595.44H736.558V1580.67ZM840.001 1580.67H825.223V1595.44H840.001V1580.67ZM913.891 1536.33H899.113V1551.11H913.891V1536.33ZM943.446 1551.11V1565.89H928.668V1551.11V1551.11V1536.33H943.446V1551.11V1551.11ZM943.447 1536.33H958.225H958.225H973H973.003H987.778V1551.11V1551.11V1565.89H973.003H973H958.225V1551.11H943.447V1536.33ZM958.225 1521.56H943.447V1536.33H958.225H958.225H973.003V1521.56H958.225H958.225ZM958.225 1506.78H973V1492H987.778V1506.78V1506.78V1521.56H973.003H973H958.225V1506.78ZM987.78 1492H1002.56V1477.22H1017.34H1017.34H1032.11V1492V1492V1506.78V1506.78V1521.56H1017.34H1017.34H1002.56H1002.56H987.78V1506.78V1506.78V1492ZM1002.56 1462.44V1477.22H1017.34V1462.44H1032.11H1032.11H1046.89V1477.22H1061.67V1462.44V1462.44V1447.67H1046.89H1046.89H1032.11H1032.11H1017.34H1017.34H1002.56H1002.56H987.78V1462.44H1002.56ZM1017.34 1432.89H1032.11H1032.11H1046.89V1447.67H1032.11H1032.11H1017.34H1017.34H1002.56H1002.56H987.78V1432.89H1002.56H1002.56H1017.34H1017.34ZM1061.67 1462.44H1076.45V1477.22H1061.67V1462.44ZM1076.45 1477.22H1061.67V1492H1076.45V1506.78H1091.22V1492V1492V1477.22H1076.45H1076.45ZM1091.23 1492H1106V1506.78V1506.78V1521.56H1091.23V1506.78V1506.78V1492ZM1002.56 1418.11H1017.34V1432.89H1002.56H1002.56H987.78V1418.11H1002.56H1002.56ZM987.778 1447.67H973.003H973H958.225V1462.44V1462.44V1477.22H973H973.003H987.778V1462.44V1462.44V1447.67ZM973 1432.89H987.778V1447.67H973V1432.89ZM943.447 1477.22H958.225V1492H943.447V1477.22ZM1017.34 1521.56H1032.11V1536.33H1017.34V1521.56ZM973 1580.67H958.225V1595.44H973H973.003H987.778V1580.67H973.003H973ZM973 1565.89H987.778V1580.67H973V1565.89ZM987.78 1536.33H1002.56V1551.11H1017.34V1565.89H1002.56H1002.56H987.78V1551.11V1551.11V1536.33ZM987.78 1565.89H1002.56V1580.67H987.78V1565.89ZM899.113 1698.89H884.335H884.335H869.558V1713.67H884.335H884.335H899.113V1698.89ZM884.335 1713.67H869.558V1728.44H884.335V1713.67ZM869.558 1728.45H884.335V1743.22H869.558V1758H854.78H854.78H840.003V1743.22H854.78V1728.45H869.558H869.558ZM854.78 1758H840.003V1772.78H854.78H854.78H869.558V1758H854.78H854.78ZM840.003 1772.78H854.78V1787.56H840.003V1772.78ZM840.001 1772.78H825.223V1787.56H840.001V1772.78ZM825.225 1787.56H840.001V1802.33V1802.33V1817.11V1817.11V1831.89H825.225H825.223H810.447V1817.11V1817.11V1802.33V1802.33V1787.56H825.223H825.225ZM840.001 1831.89H825.223V1846.67H840.001V1831.89ZM810.446 1772.78H795.668V1787.56H810.446V1772.78ZM987.78 1580.67H1002.56H1002.56H1017.34V1595.44H1002.56H1002.56H987.78V1580.67ZM1032.11 1728.45H1017.34V1743.22V1743.22V1758H1032.11H1032.11H1046.89V1743.22H1032.11V1728.45ZM1017.34 1758H1032.11H1032.11H1046.89V1772.78H1032.11H1032.11H1017.34V1758ZM1032.11 1772.78H1046.89V1787.56H1032.11V1772.78ZM1046.89 1787.56H1032.11V1802.33H1046.89V1787.56ZM1032.11 1817.11H1046.89V1831.89H1032.11H1032.11H1017.34V1817.11H1032.11H1032.11ZM1046.89 1831.89H1032.11H1032.11H1017.34V1846.67H1032.11V1861.44H1046.89H1061.67V1846.67V1846.67V1831.89H1046.89H1046.89ZM1120.78 1994.45H1135.56H1150.34V2009.22V2024H1135.56H1120.78H1106H1091.23V2009.22L1106 2009.22V1994.45H1120.78ZM869.558 2024H884.335V2009.22V1994.45H869.558V2009.22V2024ZM810.447 2009.22H825.225V2024H810.447V2009.22ZM1032.11 1861.45V1876.22H1046.89V1861.45H1032.11ZM1106 1580.67H1091.23V1595.44H1106V1580.67ZM1076.45 1580.67H1091.22V1595.44H1076.45V1580.67ZM1091.22 1565.89H1076.45V1580.67H1091.22V1565.89ZM1106 1565.89H1091.23V1580.67H1106V1565.89ZM1106 1551.11V1565.89H1091.23V1551.11V1551.11V1536.33H1106V1551.11V1551.11ZM1091.23 1521.56H1106V1536.33H1091.23V1521.56ZM913.891 1403.33H899.113H899.113H884.335V1418.11V1418.11V1432.89H899.113H899.113H913.891V1418.11V1418.11V1403.33ZM854.78 1432.89H869.558H869.558H884.335H884.335H899.113V1447.67H884.335H884.335H869.558H869.558H854.78V1432.89ZM840.001 1418.11H825.223V1432.89H840.001V1418.11ZM840.003 1403.33H854.78V1418.11H840.003V1403.33ZM869.558 1447.67H854.78V1462.44V1462.44V1477.22H869.558H869.558H884.335V1462.44H899.113V1447.67H884.335V1462.44H869.558V1447.67ZM854.78 1388.56H869.558V1403.33H854.78H854.78H840.003V1388.56H854.78H854.78ZM825.223 1388.56H840.001V1403.33H825.223V1388.56ZM825.223 1373.78H810.447V1388.56H825.223H825.225H840.001V1373.78V1373.78V1359H825.223V1373.78Z" fill="#413E2D"/>
<path fill-rule="evenodd" clip-rule="evenodd" d="M899.113 1330.15H884.335H884.335H869.558H869.558H854.78V1344.93H869.558H869.558H884.335H884.335H899.113V1330.15ZM913.891 1344.93H899.113H899.113H884.335V1359.7H869.558V1374.48H854.78H854.78H840.003V1389.26H854.78H854.78H869.558V1374.48H884.335V1359.7H899.113H899.113H913.891V1344.93ZM884.335 1447.67H869.558V1462.44H884.335V1477.22H899.113H899.113H913.891V1462.44V1462.44V1447.67V1447.67V1432.89H899.113V1447.67V1447.67V1462.44H884.335V1447.67ZM884.335 1492H899.113V1506.78H913.891V1492H899.113V1477.22H884.335H884.335H869.558H869.558H854.78V1492V1492V1506.78H869.558H869.558H884.335V1492ZM913.891 1521.56H899.113H899.113H884.335V1536.33H899.113H899.113H913.891V1521.56ZM973 1521.56H987.778V1536.33H973V1521.56ZM1002.56 1521.56H987.78V1536.33H1002.56H1002.56H1017.34V1521.56H1002.56H1002.56ZM854.78 1698.89H869.558V1713.67H854.78V1698.89ZM1032.11 1772.78H1017.34V1787.56V1787.56V1802.33V1802.33V1817.11H1032.11H1032.11H1046.89H1046.89H1061.67V1802.33H1046.89H1046.89H1032.11V1787.56V1787.56V1772.78ZM869.558 1713.67H854.78V1727.74H840.003V1742.52H854.78V1728.44H869.558V1713.67ZM1061.67 1817.11H1046.89V1831.89H1061.67V1817.11ZM1135.56 1979.67H1150.34V1994.44H1135.56V1979.67ZM1106 1994.44H1091.23V2009.22H1106V1994.44ZM1076.45 2009.22H1091.22V2024H1076.45H1076.45H1061.67V2009.22H1076.45H1076.45ZM810.446 2009.22H795.668H780.89V2024H795.668H810.446V2009.22ZM840.001 1743.22H825.223V1758H840.001V1743.22ZM825.225 1758H840.001V1772.78H825.225H825.223H810.447V1758H825.223H825.225ZM795.668 1758H810.446V1772.78H795.668V1758ZM825.225 1772.78H810.447V1787.56H825.225V1772.78ZM884.335 1506.78H899.113V1521.56H884.335V1506.78ZM854.78 1506.78H869.558V1521.56H854.78V1506.78ZM869.558 1521.56H854.78V1536.33H869.558V1521.56ZM840.003 1551.11H854.78V1565.89H840.003V1551.11ZM840.001 1551.11H825.223V1565.89H840.001V1551.11ZM766.113 1565.89H780.891V1580.67H766.113H766.113H751.335H751.335H736.558V1565.89H751.335H751.335H766.113H766.113ZM751.335 1580.67H766.113V1595.44H751.335V1580.67ZM913.892 1432.89H928.67V1447.67H913.892V1432.89ZM928.67 1462.44H913.892V1477.22H928.67V1462.44ZM943.447 1506.78H958.225V1521.56H943.447V1506.78ZM958.225 1492H943.447V1506.78H958.225H958.225H973.003V1492H987.778V1477.22H973.003H973H958.225V1492ZM1002.56 1477.22H987.78V1492H1002.56V1477.22ZM987.78 1462.44H1002.56V1477.22H987.78V1462.44ZM1032.11 1418.11H1017.34V1432.89H1032.11H1032.11H1046.89V1418.11H1032.11H1032.11ZM1061.67 1432.89H1046.89V1447.67H1061.67V1432.89ZM1061.67 1447.67H1076.45V1462.44H1091.22V1477.22H1076.45V1462.44H1061.67V1447.67ZM1091.23 1477.22H1106V1492H1091.23V1477.22ZM810.447 1330.15H825.225V1344.93H810.447V1330.15Z" fill="#6E6A49"/>
<path fill-rule="evenodd" clip-rule="evenodd" d="M913.887 1315.37H899.109H899.109H884.332H884.331H869.554H869.554H854.776V1330.15H869.554H869.554H884.331H884.332H899.109H899.109H913.887V1315.37ZM839.999 1315.37H854.775V1330.15H839.999H839.997H825.221V1315.37H839.997H839.999ZM839.999 1330.15H854.775V1344.93H839.999V1359.7H825.221V1344.93V1344.93V1330.15H839.997H839.999ZM810.442 1315.37H825.219V1330.15H810.442V1315.37ZM899.109 1330.15H913.887V1344.93H899.109V1330.15Z" fill="#6A6A67"/>
<path fill-rule="evenodd" clip-rule="evenodd" d="M884.332 1271.04H899.109V1285.81H884.332H884.331H869.554H869.554H854.776V1271.04H869.554H869.554H884.331H884.332ZM913.887 1285.81H899.109H899.109H884.332H884.331H869.554H869.554H854.776V1300.59V1300.59V1315.37H869.554H869.554H884.331H884.332H899.109H899.109H913.887V1300.59V1300.59V1285.81ZM825.219 1315.37V1300.59V1300.59V1285.81H810.442V1300.59V1300.59V1315.37H825.219ZM839.999 1285.81H854.775V1300.59V1300.59V1315.37H839.999H839.997H825.221V1300.59V1300.59V1285.81H839.997H839.999ZM854.775 1271.04H839.999H839.997H825.221V1285.81H839.997H839.999H854.775V1271.04Z" fill="#8E8E8E"/>
</g>
<path fill-rule="evenodd" clip-rule="evenodd" d="M368 1541H347V1562H368V1541ZM431 1541H410V1562H431V1541Z" fill="#2E5887"/>
<path fill-rule="evenodd" clip-rule="evenodd" d="M326 1520H347H368V1541H347H326V1520ZM431 1520H410V1541H431V1520Z" fill="black"/>
<rect x="326" y="1541" width="21" height="21" fill="white"/>
<path fill-rule="evenodd" clip-rule="evenodd" d="M389 1772H410V1793H431V1814V1835V1856H452V1877V1898V1919V1940V1961H431V1982H410V1961V1940V1919H389V1898V1877H368V1856H347V1835V1814V1793H368H389V1772ZM389 1919V1940H368V1919H389Z" fill="#560B28"/>
<rect x="347" y="1751" width="21" height="21" fill="#FBFFE2"/>
<rect x="263" y="1751" width="21" height="21" fill="#8173A8"/>
<path fill-rule="evenodd" clip-rule="evenodd" d="M284 1751V1772H263V1793V1814H242V1835V1856H221V1877H200V1898V1919V1940V1961H221V1982H242H263H284V1961H305V1940H284V1919V1898H263V1877V1856V1835H284V1814V1793H305H326V1772V1751H305H284ZM410 1772H389V1793H368V1772V1751H389H410H431V1772V1793H410V1772ZM452 1751V1772V1793H473V1772V1751H452ZM389 1961H368V1940H389V1919H410V1940V1961H389ZM368 1961V1982H347V1961H368Z" fill="#320632"/>
<path fill-rule="evenodd" clip-rule="evenodd" d="M284 1709H263V1730H242V1751H221V1772H200V1793V1814V1835H221H242V1814V1793H263V1772V1751V1730H284H305V1709H284Z" fill="#FCFCFC"/>
<path fill-rule="evenodd" clip-rule="evenodd" d="M536 1457H515V1478H494V1499H473V1520H494V1499H515V1478H536V1457ZM242 1646H221V1667H242V1688H263H284V1667V1646H263H242ZM347 1751H326V1772H347V1793H368V1772H347V1751ZM347 1877H368V1898V1919V1940H347H326V1919H305V1898H326V1877H347ZM452 1751H431V1772H452V1751Z" fill="#F2BF57"/>
<path fill-rule="evenodd" clip-rule="evenodd" d="M599 1688H578V1709V1730H599V1709V1688ZM536 1730H557V1751H536V1730ZM137 1772H158V1793V1814V1835H137V1814H116H95V1793V1772H116H137ZM305 1793H284V1814V1835H263V1856V1877V1898H284V1919V1940H305V1919V1898V1877H326V1856H347V1835V1814V1793H326H305ZM431 1793H452H473V1814H494V1835V1856H515V1877V1898H494V1877H473H452V1856H431V1835V1814V1793ZM389 1877H368V1898V1919H389V1898V1877Z" fill="#120022"/>
<path fill-rule="evenodd" clip-rule="evenodd" d="M515 1478H536V1499H515V1478ZM494 1520V1499H515V1520H494ZM494 1520V1541H473V1520H494ZM242 1625H263H284V1646H263H242V1625ZM452 1625H431V1646H452H473V1625H452ZM326 1772H347V1793H326V1772ZM368 1856H347H326V1877H305V1898H326V1877H347H368V1856ZM452 1898V1919H473V1940H494H515V1919V1898H494V1877H473H452V1898ZM452 1772H431V1793H452V1772Z" fill="#B05F28"/>
<path fill-rule="evenodd" clip-rule="evenodd" d="M515 1436H536H557V1457V1478H536V1457H515V1436ZM494 1625H473V1646H452V1667H473V1688H494H515H536V1667V1646H515V1625H494ZM305 1646H284V1667V1688H263H242V1667H221H200V1688H221V1709H242V1730H263V1709H284V1688H305V1667V1646Z" fill="#2C2C2C"/>
<path fill-rule="evenodd" clip-rule="evenodd" d="M284 1625H305V1646H284V1625ZM305 1646H326V1667V1688H347V1709H368H389H410H431V1730H410H389H368H347V1751H326H305H284V1730H305V1709H284V1688H305V1667V1646ZM557 1646H536V1667V1688H515H494V1709H515V1730H536H557H578V1709V1688V1667H557V1646ZM179 1730H200V1751H179V1730ZM179 1730H158V1709H179V1730ZM200 1751H221V1772H200V1751ZM326 1919H305V1940V1961H326V1982H347V1961H368V1940H347H326V1919ZM305 2003H284H263V2024H284H305V2003ZM536 2003H557V2024H536H515V2003H536ZM452 1919H473V1940H494H515V1961H494H473H452V1940V1919ZM410 1625H431V1646H410V1625ZM431 1646V1667H452V1646H431Z" fill="#3F4B4E"/>
<path fill-rule="evenodd" clip-rule="evenodd" d="M305 1625H326V1646H305V1625ZM410 1646V1667H389H368H347V1646H326V1667V1688H347V1709H368H389H410H431H452V1688V1667H431V1646H410ZM410 1646H389V1625H410V1646ZM200 1688H221V1709H242V1730V1751H221H200V1730H179V1709V1688H200ZM179 1730H158H137V1751H116V1772H137H158V1793H179H200V1772V1751H179V1730ZM326 1961H305H284V1982H263V2003H284H305H326V1982V1961ZM473 1961H494H515H536V1982V2003H515V2024H494V2003V1982H473V1961ZM347 1730H368H389H410H431V1751H410H389H368H347V1730Z" fill="#7E8E93"/>
<path fill-rule="evenodd" clip-rule="evenodd" d="M410 1415H389H368H347H326H305V1436H284H263V1457V1478H242V1499V1520H221V1541V1562V1583V1604V1625V1646H242V1625H263H284H305H326V1646H347V1625V1604H326V1583V1562H305V1541H326V1520H347V1499H368V1478V1457H389V1436H410V1457H431V1478H452V1499V1520V1541V1562V1583V1604H431V1625H452V1604H473V1583V1562V1541V1520V1499V1478H452V1457V1436H431H410V1415Z" fill="#7D311A"/>
<rect x="410" y="1457" width="21" height="21" fill="#4D0F0A"/>
<rect x="389" y="1457" width="21" height="21" fill="#4D0F0A"/>
<rect x="368" y="1457" width="21" height="21" fill="#4D0F0A"/>
<rect x="389" y="1436" width="21" height="21" fill="#4D0F0A"/>
<rect x="431" y="1478" width="21" height="21" fill="#4D0F0A"/>
<rect x="431" y="1499" width="21" height="21" fill="#4D0F0A"/>
<rect x="431" y="1520" width="21" height="21" fill="#4D0F0A"/>
<rect x="431" y="1541" width="21" height="21" fill="#4D0F0A"/>
<rect x="431" y="1562" width="21" height="21" fill="#4D0F0A"/>
<rect x="431" y="1583" width="21" height="21" fill="#4D0F0A"/>
<rect x="410" y="1604" width="21" height="21" fill="#4D0F0A"/>
<rect x="389" y="1604" width="21" height="21" fill="#4D0F0A"/>
<path fill-rule="evenodd" clip-rule="evenodd" d="M368 1499H389H410H431V1520H410V1541V1562H431V1583H410V1604H389H368H347V1583H326V1562H347H368V1541V1520V1499ZM368 1625H347V1646H368V1667H389H410V1646H389V1625H368Z" fill="#FCDCA0"/>
<path fill-rule="evenodd" clip-rule="evenodd" d="M410 1478H431V1499H410H389H368V1478H389H410ZM368 1499V1520H347V1499H368ZM326 1541H305V1562H326V1541ZM347 1583H326V1604H347V1625H368H389V1604H368H347V1583ZM347 1646H368V1667H347V1646ZM431 1583H410V1604H431V1583Z" fill="#EC8D2F"/>
<defs>
<clipPath id="clip0_112_3012">
<rect width="840" height="651" fill="white" transform="matrix(-0.928737 0.370738 0.370738 0.928737 1055.39 216.486)"/>
</clipPath>
<clipPath id="clip1_112_3012">
<rect width="1014.81" height="1370" fill="white" transform="matrix(-1 0 0 1 1784.81 633)"/>
</clipPath>
<clipPath id="clip2_112_3012">
<rect width="665" height="752.963" fill="white" transform="matrix(-1 0 0 1 1239 1271.04)"/>
</clipPath>
</defs>
</svg>
