<svg width="68" height="66" viewBox="0 0 68 66" fill="none" xmlns="http://www.w3.org/2000/svg">
<g filter="url(#filter0_bd_24_129)">
<path fill-rule="evenodd" clip-rule="evenodd" d="M33.6838 35.9438C39.0843 35.9438 43.4623 31.5658 43.4623 26.1652C43.4623 20.7647 39.0843 16.3867 33.6838 16.3867C28.2832 16.3867 23.9052 20.7647 23.9052 26.1652C23.9052 31.5658 28.2832 35.9438 33.6838 35.9438ZM16.7295 46.7639C16.7295 41.8966 20.6752 37.9508 25.5425 37.9508H42.4796C47.3469 37.9508 51.2926 41.8966 51.2926 46.7639V49.7131H16.7295V46.7639Z" fill="url(#paint0_linear_24_129)"/>
<path fill-rule="evenodd" clip-rule="evenodd" d="M33.6838 35.9438C39.0843 35.9438 43.4623 31.5658 43.4623 26.1652C43.4623 20.7647 39.0843 16.3867 33.6838 16.3867C28.2832 16.3867 23.9052 20.7647 23.9052 26.1652C23.9052 31.5658 28.2832 35.9438 33.6838 35.9438ZM16.7295 46.7639C16.7295 41.8966 20.6752 37.9508 25.5425 37.9508H42.4796C47.3469 37.9508 51.2926 41.8966 51.2926 46.7639V49.7131H16.7295V46.7639Z" fill="url(#paint1_linear_24_129)"/>
<path fill-rule="evenodd" clip-rule="evenodd" d="M33.6838 35.9438C39.0843 35.9438 43.4623 31.5658 43.4623 26.1652C43.4623 20.7647 39.0843 16.3867 33.6838 16.3867C28.2832 16.3867 23.9052 20.7647 23.9052 26.1652C23.9052 31.5658 28.2832 35.9438 33.6838 35.9438ZM16.7295 46.7639C16.7295 41.8966 20.6752 37.9508 25.5425 37.9508H42.4796C47.3469 37.9508 51.2926 41.8966 51.2926 46.7639V49.7131H16.7295V46.7639Z" fill="url(#paint2_linear_24_129)"/>
</g>
<defs>
<filter id="filter0_bd_24_129" x="-7.40338" y="-7.74615" width="82.829" height="81.5924" filterUnits="userSpaceOnUse" color-interpolation-filters="sRGB">
<feFlood flood-opacity="0" result="BackgroundImageFix"/>
<feGaussianBlur in="BackgroundImage" stdDeviation="12.0664"/>
<feComposite in2="SourceAlpha" operator="in" result="effect1_backgroundBlur_24_129"/>
<feColorMatrix in="SourceAlpha" type="matrix" values="0 0 0 0 0 0 0 0 0 0 0 0 0 0 0 0 0 0 127 0" result="hardAlpha"/>
<feOffset/>
<feGaussianBlur stdDeviation="8.04429"/>
<feComposite in2="hardAlpha" operator="out"/>
<feColorMatrix type="matrix" values="0 0 0 0 0 0 0 0 0 0 0 0 0 0 0 0 0 0 0.42 0"/>
<feBlend mode="normal" in2="effect1_backgroundBlur_24_129" result="effect2_dropShadow_24_129"/>
<feBlend mode="normal" in="SourceGraphic" in2="effect2_dropShadow_24_129" result="shape"/>
</filter>
<linearGradient id="paint0_linear_24_129" x1="16.247" y1="12.6582" x2="58.0814" y2="51.6894" gradientUnits="userSpaceOnUse">
<stop stop-color="#6001F8"/>
<stop offset="1" stop-color="#F201A3"/>
</linearGradient>
<linearGradient id="paint1_linear_24_129" x1="16.247" y1="12.6582" x2="58.0814" y2="51.6894" gradientUnits="userSpaceOnUse">
<stop stop-color="#6001F8"/>
<stop offset="1" stop-color="#F201A3"/>
</linearGradient>
<linearGradient id="paint2_linear_24_129" x1="16.247" y1="12.6582" x2="58.0814" y2="51.6894" gradientUnits="userSpaceOnUse">
<stop stop-color="white"/>
<stop offset="1" stop-color="white"/>
</linearGradient>
</defs>
</svg>
