<svg width="62" height="52" viewBox="0 0 62 52" fill="none" xmlns="http://www.w3.org/2000/svg">
<path fill-rule="evenodd" clip-rule="evenodd" d="M41.3955 17.3705C39.7436 19.3755 36.779 19.6617 34.774 18.0098L34.7544 17.9936L34.7347 17.9775C34.6952 17.945 34.6564 17.9121 34.6183 17.8787C34.5778 17.848 34.5378 17.8167 34.498 17.7846C26.0072 10.9196 15.4279 8.34236 5.38044 9.80139C2.80954 10.1747 0.422765 8.39324 0.0494378 5.82234C-0.323896 3.25144 1.45759 0.86467 4.02849 0.491338C16.5621 -1.32872 29.7999 1.88815 40.4129 10.4689C40.4623 10.5088 40.5108 10.5496 40.5582 10.5912C40.6084 10.6292 40.6581 10.6684 40.7072 10.7088L40.7317 10.7289L40.7562 10.749C42.7612 12.401 43.0474 15.3655 41.3955 17.3705ZM32.6306 25.1263C30.2375 26.1372 29.117 28.8967 30.1279 31.2898C31.1389 33.6829 33.8984 34.8034 36.2915 33.7925L36.3199 33.7804L36.3483 33.7684C36.4053 33.7442 36.4616 33.7191 36.5172 33.6929C36.5745 33.6707 36.6315 33.6473 36.6883 33.6226C48.8889 28.3354 57.6442 18.3596 61.7329 6.71764C62.5938 4.26654 61.3046 1.58169 58.8535 0.720856C56.4025 -0.139984 53.7176 1.14917 52.8568 3.60027C49.6005 12.872 42.6442 20.7885 32.9476 24.9906C32.9022 25.0103 32.8573 25.0306 32.8129 25.0515C32.7671 25.0692 32.7215 25.0878 32.676 25.1071L32.6533 25.1167L32.6306 25.1263ZM24.4459 16.6371C24.4076 14.0395 22.2708 11.9648 19.6732 12.0031C17.0756 12.0414 15.0009 14.1782 15.0392 16.7758L15.0397 16.8066L15.0402 16.8374C15.0412 16.8992 15.0433 16.9607 15.0467 17.0219C15.0458 17.0832 15.0461 17.1448 15.0476 17.2066C15.3658 30.4758 21.3131 42.315 30.551 50.4616C32.4995 52.1798 35.4719 51.9932 37.1902 50.0448C38.9084 48.0963 38.7218 45.1238 36.7734 43.4056C29.4197 36.9207 24.7054 27.5221 24.4526 16.981C24.4514 16.9317 24.4494 16.8826 24.4468 16.8337C24.4475 16.7847 24.4474 16.7356 24.4466 16.6863L24.4463 16.6617L24.4459 16.6371Z" fill="url(#paint0_linear_5_1190)"/>
<defs>
<linearGradient id="paint0_linear_5_1190" x1="0.0141182" y1="2.67864" x2="41.4507" y2="44.406" gradientUnits="userSpaceOnUse">
<stop stop-color="white"/>
<stop offset="1" stop-color="#D5D5D5"/>
</linearGradient>
</defs>
</svg>
