<svg width="620" height="702" viewBox="0 0 620 702" fill="none" xmlns="http://www.w3.org/2000/svg">
<g clip-path="url(#clip0_111_1249)">
<path fill-rule="evenodd" clip-rule="evenodd" d="M68.8897 261.118H82.6672V274.895H68.8897V261.118ZM82.6672 274.896H68.8897V288.673V288.673V302.45H82.6672V288.673V288.673V274.896ZM41.3342 302.451H55.111H55.1118H68.8886V316.228H55.1118H55.111H41.3342V302.451ZM110.222 316.228H123.999V330.006V330.006V343.783H110.222V330.006V330.006V316.228ZM110.223 343.783H96.4451V357.561H110.223V343.783ZM96.4451 357.561H110.223V371.339H96.4451V357.561ZM110.223 371.339H96.4451V385.116V385.116V398.894H110.223V385.116V385.116V371.339ZM82.6664 371.339H96.444V385.116V385.116V398.894H82.6664V385.116V385.116V371.339ZM96.444 398.894H82.6672H82.6664H68.8897V412.671H82.6664H82.6672H96.444V398.894ZM68.8897 412.671H82.6672V426.449H68.8897V412.671ZM55.1118 412.671H68.8886V426.449H55.1118H55.111H41.3342V412.671H55.111H55.1118ZM68.8886 288.673H55.1118V274.896H41.3342V288.673V288.673V302.45H55.111H55.1118H68.8886V288.673Z" fill="#4F4E46"/>
<path fill-rule="evenodd" clip-rule="evenodd" d="M330.663 330.006H316.885V343.783H330.663V330.006ZM330.662 343.784H316.885V357.561V357.561V371.338H330.662H330.663H344.44V357.561V357.561V343.784H330.663H330.662ZM179.109 385.116H165.331V398.894H179.109V385.116Z" fill="#4F3112"/>
<rect x="165.331" y="371.338" width="13.7776" height="13.7776" fill="#36230F"/>
<path fill-rule="evenodd" clip-rule="evenodd" d="M619.99 109.565H606.213V123.342H619.99V109.565ZM606.213 123.342H619.99V137.12V137.12V150.897H606.214H606.213H592.436V137.12H606.213V123.342ZM606.214 150.897H592.436V164.675H606.214V150.897ZM578.658 164.675H592.435V178.453H578.658V192.23H564.881H564.881H551.104V178.452H564.881V164.675H578.657H578.658ZM537.326 192.23H551.103V206.008H537.326H537.325H523.548V192.23H537.325H537.326ZM551.103 206.008H537.326H537.325H523.548V219.785H537.325H537.326H551.103V206.008ZM509.77 219.785H495.993V233.563V233.563V247.34H509.77H509.771H523.547V233.563V233.563V219.785H509.771H509.77ZM468.438 247.34H482.214H482.215H495.992V261.118H482.215H482.214H468.438V247.34ZM509.771 247.34H495.993V261.118H509.771V247.34ZM523.548 219.785H537.326V233.563H523.548V219.785ZM564.881 192.23H551.104V206.008H564.881V192.23ZM578.657 150.897H592.435V164.675H578.657V150.897ZM509.77 206.008H523.547V219.785H509.77V206.008ZM495.992 261.118H482.214V274.896H495.992V261.118Z" fill="#B0B0B0"/>
<path fill-rule="evenodd" clip-rule="evenodd" d="M468.435 247.34H454.658V261.118H468.435V247.34ZM413.326 302.451H427.102H427.103H440.88V316.228V316.228V330.006H427.103H427.102H413.326V316.228V316.228V302.451ZM454.658 261.118H468.435V274.896H454.658V261.118ZM482.214 261.118H468.437V274.895V274.896V288.673H482.213H482.214H495.991V274.895H482.214V261.118ZM482.213 288.673H468.437V302.451H482.213H482.214H495.991V288.673H482.214H482.213Z" fill="#6A6A67"/>
<path fill-rule="evenodd" clip-rule="evenodd" d="M413.328 261.118H399.551V274.895H413.328H413.329H427.106V261.118H413.329H413.328ZM399.551 274.896H413.328H413.329H427.106V288.673H413.329H413.328H399.551V274.896ZM440.884 261.118H427.107V274.895H440.884V261.118Z" fill="#999999"/>
<path fill-rule="evenodd" clip-rule="evenodd" d="M399.551 274.895H385.773V288.673H399.551V274.895ZM399.55 288.673H385.773V302.45H399.55H399.551H413.327V288.673H399.551H399.55ZM427.106 288.673H413.328V302.45H427.106V288.673Z" fill="#83837B"/>
<path fill-rule="evenodd" clip-rule="evenodd" d="M55.1109 95.7866H68.8884V109.564H55.1116V109.564H41.334V95.7866H55.1109V95.7866ZM82.6671 95.7866H68.8895V109.564H82.6671V95.7866ZM82.6663 109.564H96.4439V123.342H82.6663V109.564ZM110.223 123.342H96.4449V137.119H110.223V123.342ZM96.4449 137.119H110.223V150.897H96.4449V137.119ZM123.999 150.897H110.222V164.674V164.675V178.452H123.999V164.675V164.674V150.897ZM123.999 178.452H110.222V192.23H123.999V178.452ZM123.999 192.23H110.222V206.007H123.999V192.23Z" fill="#A7A7A6"/>
<path fill-rule="evenodd" clip-rule="evenodd" d="M82.6664 109.564H68.8889V123.342H82.6664V109.564ZM68.8889 123.342H82.6656H82.6664H96.4432V137.119V137.12V150.897H82.6664H82.6656H68.8889V137.12V137.119V123.342ZM27.5548 150.897H41.3324V164.675H27.5556V164.675L41.3324 164.675V178.452V178.452V192.23H27.5556V192.23L41.3324 192.23V206.007H27.5556V206.008H41.3324V219.785H27.5556H27.5548H13.778V206.008V192.23H27.5548V192.23L13.778 192.23V178.453V178.452V164.675H27.5548V164.675L13.778 164.675V150.897H27.5548V150.897ZM13.778 233.562V219.785H27.5548H27.5556H41.3324V233.562V233.563V247.34H27.5556H27.5548H13.778V233.563V233.562ZM41.3324 261.118H27.5556H27.5548H13.778V274.895V274.895V288.673H27.5548H27.5556H41.3324V274.895V274.895V261.118ZM41.3324 330.006H27.5556H27.5548H13.778V343.783H27.5548H27.5556H41.3324V330.006ZM96.4432 330.006H82.6664H82.6656H68.8889V343.783H82.6656H82.6664H96.4432V330.006ZM41.3334 371.338V385.116H55.1102H55.111H68.8878V371.338H55.111H55.1102H41.3334ZM82.6664 371.338L96.4432 371.338V357.561V357.561V343.783H82.6664H82.6656H68.8889V357.561V357.561V371.338H82.6664ZM13.778 357.561V343.783H27.5548H27.5556H41.3324V357.561V357.561V371.338H27.5556H27.5548H13.778V357.561V357.561ZM13.778 288.673H27.5548H27.5556H41.3324V302.45H27.5556H27.5548H13.778V288.673ZM68.8878 398.894V412.671H55.111H55.1102H41.3334V398.894H55.1102H55.111H68.8878ZM41.3334 385.116V398.894H55.1102H55.111H68.8878V385.116H55.111H55.1102H41.3334ZM41.3334 357.561V371.338H55.1102H55.111H68.8878V357.561V357.561V343.783H55.111H55.1102H41.3334V357.561V357.561ZM55.1102 330.006H41.3334V343.783H55.1102H55.111H68.8878V330.006H55.111H55.1102ZM41.3334 316.228H55.1102H55.111H68.8878V330.005H55.111H55.1102H41.3334V316.228ZM27.5548 385.116H41.3324V398.894H27.5548V385.116ZM41.3324 385.116V371.338H27.5556H27.5548H13.778V385.116H27.5548H27.5556H41.3324ZM27.5548 302.451H13.778V316.228V316.228V330.005H27.5548H27.5556H41.3324V316.228V316.228V302.451H27.5556H27.5548ZM41.3324 398.894V412.671H27.5548V398.894H41.3324ZM82.6664 302.451H96.4432V316.228V316.228V330.005H82.6664H82.6656H68.8889V316.228V316.228V302.451H82.6656H82.6664ZM13.778 247.34H27.5548H27.5556H41.3324V261.118H27.5556H27.5548H13.778V247.34ZM96.4432 288.673H82.6656V302.45H96.4432V288.673ZM82.6656 288.673V274.895V274.895V261.118H96.4432V274.895V274.895V288.673H82.6656ZM96.4432 219.785H82.6664H82.6656H68.8889V233.562V233.563V247.34H82.6656H82.6664H96.4432V233.563V233.562V219.785ZM68.8878 219.785H55.111H55.1102H41.3334V233.562V233.563V247.34H55.1102H55.111H68.8878V233.563V233.562V219.785ZM82.6664 206.008H96.4432V219.785H82.6664H82.6656H68.8889V206.008H82.6656H82.6664ZM55.111 206.008H68.8878V219.785H55.111H55.1102H41.3334V206.008H55.1102H55.111ZM82.6664 164.675H96.4432V178.452V178.452V192.23H82.6664H82.6656H68.8889V178.452V178.452V164.675H82.6656H82.6664ZM55.111 164.675H68.8878V178.452V178.452V192.23H55.111H55.1102H41.3334V178.452V178.452V164.675H55.1102H55.111ZM82.6664 247.34H96.4432V261.118H82.6664H82.6656H68.8889V247.34H82.6656H82.6664ZM55.111 247.34H68.8878V261.118H55.111H55.1102H41.3334V247.34H55.1102H55.111ZM55.1102 274.895H41.3334V261.118H55.1102H55.111H68.8878V274.895V274.895V288.673H55.1102V274.895ZM82.6664 192.23H96.4432V206.007H82.6664H82.6656H68.8889V192.23H82.6656H82.6664ZM55.111 192.23H68.8878V206.007H55.111H55.1102H41.3334V192.23H55.1102H55.111ZM82.6664 150.897H96.4432V164.675H82.6664H82.6656H68.8889V150.897H82.6656H82.6664ZM55.111 150.897H68.8878V164.675H55.111H55.1102H41.3334V150.897H55.1102H55.111ZM55.111 123.342H68.8878V137.119V137.12V150.897H55.111H55.1102H41.3334V137.12V137.119V123.342H55.1102H55.111ZM41.3324 150.897V137.12V137.119V123.342H27.5548V137.119V137.12V150.897H41.3324ZM55.111 109.564H68.8878V123.342H55.111H55.1102H41.3334V109.564H55.1102H55.111ZM27.5548 109.564H41.3324V123.342H27.5548V109.564ZM96.4443 150.897H110.222V164.675H96.4443V150.897ZM110.222 164.675H96.4443V178.452V178.453V192.23H110.222V178.453V178.452V164.675ZM110.222 192.23H96.4443V206.008H110.222V192.23ZM96.4443 261.118V247.34H110.222L123.998 247.34V261.118L110.222 261.118V261.118H123.998V274.895V274.896V288.673H110.221L96.4443 288.673V274.895L110.221 274.895V274.895H96.4443V261.118V261.118ZM123.998 288.673L110.222 288.673H96.4443V302.451L110.221 302.451H123.998V288.673ZM96.4443 316.228V302.451H110.222L123.998 302.451V316.228L110.222 316.228V330.006H96.4443V316.228V316.228ZM96.4443 343.783V330.006H110.222V343.783H96.4443ZM68.8889 371.338V385.116H82.6664V371.338H68.8889ZM82.6664 385.116V398.894H68.8889V385.116H82.6664ZM110.221 233.563L96.4443 233.563V247.34L110.221 247.34H123.998V233.563V233.563V219.785H110.222V219.785L123.998 219.785V206.008L110.222 206.008H96.4443V219.785V219.785V233.562H110.221V233.563ZM0 206.007H13.7776V219.785H0V206.007ZM13.7776 219.785H0V233.563H13.7776V219.785ZM0 233.563H13.7776V247.34V247.34V261.118H0V247.34V247.34V233.563ZM0 261.118H13.7776V274.895H0V261.118ZM13.7776 274.895H0V288.673V288.673V302.45H13.7776V288.673V288.673V274.895ZM0 302.45H13.7776V316.228H0V302.45Z" fill="#6A6A67"/>
<rect x="247.997" y="109.564" width="13.7776" height="13.7776" fill="#A7A7A6"/>
<rect x="234.218" y="109.564" width="13.7776" height="13.7776" fill="#A7A7A6"/>
<rect x="220.442" y="109.564" width="13.7776" height="13.7776" fill="#A7A7A6"/>
<path fill-rule="evenodd" clip-rule="evenodd" d="M220.442 123.342H206.666V137.12H220.442H220.443H234.22V123.342H220.443H220.442ZM261.776 123.342H275.554V137.12H261.776V123.342ZM247.999 137.12H261.775V150.898H247.999H247.998H234.221V137.12H247.998H247.999ZM247.999 123.342H261.775V137.12H247.999H247.998H234.221V123.342H247.998H247.999Z" fill="#83837B"/>
<path fill-rule="evenodd" clip-rule="evenodd" d="M247.995 302.45H234.218V316.228H247.995H247.996H261.772V302.45H247.996H247.995ZM234.218 316.228H247.995H247.996H261.772V330.005H247.996H247.995H234.218V316.228Z" fill="#6A6A67"/>
<path fill-rule="evenodd" clip-rule="evenodd" d="M261.774 288.673H275.551H275.552H289.329V302.451H275.552H275.551H261.774V288.673ZM261.774 302.451H275.551H275.552H289.329V316.228H275.552H275.551H261.774V302.451ZM234.22 302.451H220.442V316.228V316.228V330.006H234.22V316.228V316.228V302.451ZM220.441 302.451H206.664H206.664H192.887V316.228V316.228V330.006H206.664H206.664H220.441V316.228V316.228V302.451ZM192.886 316.228H179.108V329.35H165.331V343.127H179.108V343.783H192.886V330.006H179.109V330.006H192.886V316.228ZM289.33 288.673H303.107H303.107H316.884V302.451H303.107H303.107H289.33V288.673Z" fill="#583B1E"/>
<path fill-rule="evenodd" clip-rule="evenodd" d="M247.993 150.897H261.771V164.675H247.993V150.897ZM289.326 192.23H303.103V206.008H289.326V192.23ZM289.326 206.008H303.103V219.785V219.785V233.563H289.326H289.326H275.549V219.785V219.785V206.008H289.326H289.326ZM275.549 233.563H289.326H289.326H303.103V247.34H289.326H289.326H275.549V233.563ZM303.103 247.341H289.326V261.118V261.118V274.895H303.103V261.118V261.118V247.341ZM289.327 302.45H303.105V316.228H289.327V302.45ZM261.774 316.228H275.551H275.551H289.328V330.006H275.551H275.551H261.774V316.228ZM192.886 330.005H206.663H206.664H220.44H220.441H234.217V343.783H220.441H220.44H206.664H206.663H192.886V330.005ZM220.441 343.783H234.217V357.56H220.441H220.44H206.664H206.663H192.886V343.783H206.663H206.664H220.44H220.441ZM192.885 343.783H179.108V357.56H192.885V343.783ZM179.108 357.561H192.885V371.338V371.338V385.115H179.108V371.338V371.338V357.561ZM179.108 385.116H192.885V398.893H179.108V385.116ZM192.885 398.893H179.108H179.108H165.331V412.671V412.671V426.448H179.108H179.108H192.885V412.671V412.671V398.893ZM192.885 440.226V426.448H179.108V440.226H192.885ZM165.331 564.224H179.108H179.108H192.885V578.002H179.108H179.108H165.331V564.224ZM179.108 591.779V578.002H165.331V591.779H179.108ZM151.553 591.779H165.33V605.557H151.553H151.552H137.775V591.779H151.552H151.553ZM137.775 605.557V619.334H151.552H151.553H165.33V605.557H151.553H151.552H137.775ZM123.997 619.334H137.774V633.112H123.997V619.334ZM123.997 633.112H110.22V646.889V646.89V660.667H123.997H123.998H137.774V646.89V646.889V633.112H123.998H123.997ZM123.998 674.445V660.667H110.22V674.445H123.998ZM151.553 619.334V633.112H137.775V619.334H151.553ZM192.886 371.338H206.664V385.115H192.886V371.338ZM206.664 385.116H192.886V398.893H206.664V385.116ZM192.886 398.893H206.664V412.671V412.671V426.448H192.886V412.671V412.671V398.893ZM385.771 522.891H399.548V536.669H385.771V522.891ZM399.549 522.891V536.669H413.327V522.891H399.549ZM399.549 509.114H413.327V522.891H399.549V509.114ZM413.327 550.447V536.669H399.549V550.447H413.327ZM385.771 550.446H399.548V564.224H385.771V550.446ZM399.548 578.002V564.224H385.771V578.002H399.548ZM399.548 578.002V591.779H385.771V578.002H399.548ZM385.771 619.334H371.994V633.112H385.771V619.334ZM385.771 633.112V646.889V646.89V660.667H371.995H371.994H358.217V646.889H371.994V633.112H385.771ZM344.438 660.667H358.216V674.445H344.438V660.667ZM358.216 688.222V674.445H344.438V688.222V702H358.216V688.222ZM399.548 674.445V660.667H385.771H385.771H371.995H371.994H358.217V674.445H371.994H371.995H385.771H385.771H399.548ZM385.771 702V688.222H399.548V674.445H385.771H385.771H371.995H371.994H358.217V688.222V702H371.994H371.995H385.771ZM413.327 688.222V674.445H399.549V688.222H413.327ZM234.217 357.561H220.44V371.338H234.217V357.561ZM234.218 330.005H247.995H247.996H261.773V343.783H247.996H247.995H234.218V330.005ZM316.884 302.45H303.106V316.228H316.884V302.45ZM303.106 316.228H316.884V330.005V330.006V343.783H303.106V330.006V330.005V316.228ZM289.327 343.783H303.105V357.56H289.327V343.783ZM303.105 357.561H289.327V371.338V371.338V385.115H303.105V371.338V371.338V357.561ZM303.105 385.116H289.327V398.893H303.105V385.116ZM316.884 371.338H330.66V385.115H316.884H316.883H303.106V371.338V371.338V357.561H316.884V371.338ZM330.66 385.116H316.884H316.883H303.106V398.893H316.883H316.884H330.66V385.116ZM303.106 343.783H316.884V357.56H303.106V343.783ZM303.106 398.893H316.884V412.671H303.106V398.893ZM344.439 371.338H330.662V385.115H344.439V371.338ZM330.662 385.116H344.439V398.893H330.662V385.116Z" fill="#41280F"/>
<path fill-rule="evenodd" clip-rule="evenodd" d="M261.773 137.12H275.551V150.897H261.773V137.12ZM261.773 150.897H275.551V164.675H289.327V178.452H275.551H275.55H261.773V164.675V164.675V150.897ZM289.327 178.452H275.551H275.55H261.773V192.23H275.55H275.551H289.327V178.452ZM275.55 192.23H289.327V206.008H275.55V192.23ZM303.106 316.228H289.329V330.006H303.106V316.228ZM289.329 330.006H303.106V343.783H289.329V330.006ZM289.327 330.006H275.551H275.55H261.773V343.783H247.996V357.561H261.773H261.774H275.55H275.551H289.327V343.783V343.783V330.006ZM275.551 357.561H289.327V371.338H275.551H275.55H261.774H261.773H247.996V357.561H261.773H261.774H275.55H275.551ZM289.327 371.338H275.551H275.55H261.774H261.773H247.996V385.116V385.116V398.893H261.773H261.774H275.55H275.551H289.327V385.116V385.116V371.338ZM289.327 412.671V398.893H275.551H275.55H261.774H261.773H247.996V412.671H261.773H261.774H275.55H275.551H289.327ZM289.327 412.671V426.449H275.551H275.55H261.774H261.773H247.996V412.671H261.773H261.774H275.55H275.551H289.327ZM289.327 440.226V426.449H275.551H275.55H261.774H261.773H247.996V440.226V440.226V454.004H261.773H261.774H275.55H275.551H289.327V440.226V440.226ZM289.327 467.781V454.004H275.551H275.55H261.774H261.773H247.996V467.781H261.773H261.774H275.55H275.551H289.327ZM289.327 467.782V481.559H275.551H275.55H261.774H261.773H247.996V467.782H261.773H261.774H275.55H275.551H289.327ZM303.106 440.226H289.329V454.004H303.106V440.226ZM303.106 454.004V467.781H289.329V454.004H303.106ZM303.106 481.559V467.782H289.329V481.559H303.106ZM358.216 495.336H371.994V509.114H358.216V495.336ZM371.994 522.891V509.114H358.216V522.891V522.892V536.669H371.994V522.892V522.891ZM399.549 536.669H385.772V550.447H399.549V536.669ZM371.994 536.669H385.77V550.447H371.994H371.993H358.217H358.216H344.439V536.669H358.216H358.217H371.993H371.994ZM385.77 564.224V550.447H371.994H371.993H358.217H358.216H344.439V564.224V564.224V578.002H358.216H358.217H371.993H371.994H385.77V564.224V564.224ZM385.77 591.779V578.002H371.994H371.993H358.217H358.216H344.439V591.779H358.216H358.217H371.993H371.994H385.77ZM385.77 591.78V605.557V605.557V619.334H371.994H371.993H358.217H358.216H344.439V605.557V605.557V591.78H358.216H358.217H371.993H371.994H385.77ZM371.994 619.335V633.112V633.112V646.889H358.217H358.216H344.439V633.112V633.112V619.335H358.216H358.217H371.994ZM358.217 646.889V660.667H344.439V646.889H358.217ZM344.438 646.889H330.661V660.667H344.438V646.889ZM330.661 646.889V633.112V633.112V619.335H344.438V633.112V633.112V646.889H330.661ZM234.218 343.783H247.995V357.561H234.218V343.783ZM247.995 357.561H234.218V371.338H247.995V357.561ZM234.218 371.338H247.995V385.116V385.116V398.893H234.218H234.218H220.441V385.116V385.116V371.338H234.218H234.218ZM234.218 398.893H247.995V412.671H234.218H234.218H220.441V398.893H234.218H234.218ZM247.995 412.671H234.218H234.218H220.441V426.449H234.218H234.218H247.995V412.671ZM234.218 426.449H247.995V440.226V440.226V454.004H234.218H234.218H220.441V440.226V440.226V426.449H234.218H234.218ZM234.218 454.004H247.995V467.781H234.218H234.218H220.441V454.004H234.218H234.218ZM247.995 467.782H234.218H234.218H220.441V481.559H234.218H234.218H247.995V467.782ZM165.331 550.447H179.108V564.224H165.331V578.002H151.553V564.224V564.224V550.447H165.33H165.331ZM165.331 536.669H151.553V550.447H165.331V536.669ZM137.775 564.224H151.552V578.002H137.775V564.224ZM165.331 578.002H151.553V591.779H165.331V578.002ZM137.775 578.002H151.552V591.779H137.775H137.775H123.998V578.002H137.775H137.775ZM123.998 591.78H137.775V605.557V605.557V619.334H123.998V605.557V605.557V591.78ZM110.219 605.557H123.997V619.334H110.219V605.557ZM110.219 633.112H96.4424V646.889H110.22V633.112H123.997V619.335H110.219V633.112ZM110.22 646.889H96.4424V660.667H110.22V646.889ZM110.22 660.667V674.445H96.4424V660.667H110.22ZM220.44 371.338H206.662V385.116V385.116V398.893H220.44V385.116V385.116V371.338ZM220.44 398.893H206.662V412.671H220.44V398.893ZM206.662 412.671H220.44V426.449H206.662V412.671ZM220.44 357.561H206.663H206.662H192.885V371.338H206.662H206.663H220.44V357.561Z" fill="#633B13"/>
<path fill-rule="evenodd" clip-rule="evenodd" d="M399.548 68.2324H385.77V82.01H399.548V68.2324ZM344.438 68.8884H358.215H358.216H371.993V82.666H358.216H358.215H344.438V68.8884ZM330.66 109.565H316.883V123.343H330.66H330.66H344.437V109.565H330.66H330.66ZM330.66 123.343H344.437V137.12H330.66V123.343ZM358.216 123.343H344.438V137.12V137.12V150.898H358.216V137.12V137.12V123.343ZM385.771 123.343H371.994V137.12H385.771V123.343ZM358.215 82.6661H344.438V96.4437H358.215H358.216H371.993V82.6661H358.216H358.215ZM399.548 82.0101H385.77V95.7877H399.548V82.0101Z" fill="#1D1B10"/>
<path fill-rule="evenodd" clip-rule="evenodd" d="M330.662 68.8879H344.439V82.6655H330.662V68.8879ZM316.884 82.0097H330.661V95.7869V95.7872V109.564H316.883V95.7872H303.106V82.0097H316.883H316.884ZM303.106 109.565H316.884V123.342H303.106V109.565ZM303.105 123.342H289.328V137.12H275.551V150.897H289.328H289.329H303.105V137.12V137.12V123.342ZM289.329 150.897H275.551V164.675H289.329V150.897ZM289.328 164.675H303.105V178.453H289.328V164.675ZM316.884 192.23H303.106V206.008H316.884V192.23ZM316.883 206.008H330.661V219.785H316.884V233.563H303.106V219.785H316.883V206.008ZM344.439 219.785H330.662V233.563H344.439V219.785ZM330.662 233.563H344.439V247.34H330.662V233.563ZM344.439 247.34H330.662V261.118H344.439V274.895H358.216V261.118V261.118V247.34H344.439H344.439ZM371.993 274.895V288.673H358.216H358.215H344.439V274.895H358.215H358.216H371.993ZM371.994 288.673V274.895H385.772V288.673H371.994ZM371.993 302.451V288.673H358.215V302.451H371.993ZM427.105 288.673H440.882V302.451H427.105V288.673ZM454.659 302.451H440.882V316.228H454.659V302.451ZM440.882 247.34H454.659V261.118H440.882V247.34ZM468.436 288.673H454.658V302.451H468.436V288.673ZM385.772 288.673V302.451H371.994V288.673H385.772ZM303.106 247.34H316.884V261.118H303.106V247.34ZM275.551 261.118V274.895H289.329V261.118V261.118V247.34H275.551V261.118V261.118ZM275.55 247.34H261.773H261.772H247.996H247.996H234.219V261.118V261.118V274.895H247.996H247.996H261.773V261.118H275.55V247.34ZM261.773 233.563H275.55V247.34H261.773H261.772H247.996V233.563H261.772H261.773ZM261.773 219.785H247.996V206.008H234.219V219.785V219.785V233.563H247.996H247.996H261.773V219.785ZM234.218 206.008H220.441H220.44H206.663V219.785V219.785V233.563H220.44H220.441H234.218V219.785V219.785V206.008ZM206.662 233.563V219.785V219.785V206.008H192.885V219.785V219.785V233.563H206.662ZM206.663 192.23H220.441V206.008H206.663V192.23ZM220.441 178.453V192.23H206.663V178.453V178.452V164.675H220.44H220.441H234.218V178.453H220.441ZM206.662 192.23H192.885V206.008H206.662V192.23ZM206.662 150.897H192.885H192.885H179.108V164.675H192.885H192.885H206.662V150.897ZM206.662 164.675H192.885H192.885H179.109H179.108H165.331V178.452V178.453V192.23H179.109V178.453H192.885H192.885H206.662V164.675ZM165.33 178.452H151.552V192.23H165.33V178.452ZM151.553 192.23H165.33V206.008H151.553H151.552H137.776V192.23H151.552H151.553ZM137.776 206.008H151.553V219.785H137.776V206.008ZM137.775 206.008H123.997V219.785V219.785V233.563H137.775V219.785V219.785V206.008ZM206.663 150.897H220.44H220.441H234.218V164.675H220.441H220.44H206.663V150.897ZM220.44 137.12H206.663V150.897H220.44H220.441H234.218V137.12H220.441H220.44ZM234.219 164.675H247.996H247.996H261.773V178.452V178.453V192.23H247.996H247.996H234.219V178.453V178.452V164.675ZM247.996 150.897H234.219V164.675H247.996V150.897ZM275.55 192.23H261.772V206.008H275.55V192.23ZM206.662 233.563H192.885V247.34H206.662V233.563ZM247.996 288.673H261.773V302.451H247.996H247.996H234.219V288.673H247.996H247.996ZM247.996 274.895H234.219V288.673H247.996V274.895ZM234.218 247.34H220.44V261.118H206.663V274.895H220.44H220.441H234.218V261.118V261.118V247.34ZM234.218 274.895H220.44V288.673H234.218V274.895ZM316.883 398.893H330.661V412.671H316.883V398.893ZM344.439 398.893H330.662V412.671H344.439V398.893ZM344.439 412.671V426.449H330.662V412.671H344.439ZM358.216 440.226V426.449H344.439H344.439H330.662V440.226H344.439V454.004H358.215H358.216H371.993V440.226H358.216ZM371.993 454.004V467.781H358.216H358.215H344.439V454.004H358.215H358.216H371.993ZM371.993 481.559V467.781H358.215V481.559H371.993ZM385.772 467.781V481.559H371.994V467.781H385.772ZM399.548 495.336V481.559H385.772H385.771H371.994V495.336V495.337V509.114H385.771H385.772H399.548V495.337V495.336ZM399.548 522.892V509.114H385.772H385.771H371.994V522.892H385.771H385.772H399.548ZM385.772 522.892V536.669H371.994V522.892H385.772ZM399.549 467.781H413.327V481.559H399.549V467.781ZM234.218 288.673H220.441H220.44H206.663V302.451H220.44H220.441H234.218V288.673ZM192.885 426.449H206.662V440.226V440.226V454.004H192.885H192.885H179.108V440.226H192.885V426.449ZM206.662 454.004H192.885H192.885H179.108V467.781H192.885H192.885H206.662V454.004ZM192.885 467.781H179.108V481.559H192.885V467.781ZM179.108 481.559H192.885V495.337H179.108V481.559ZM192.885 509.114H179.108V522.892H192.885H192.885H206.662V509.114H192.885H192.885ZM179.109 522.892H192.885H192.885H206.662V536.669H192.885V550.447H179.109H179.108H165.331V536.669V536.669V522.892H179.108H179.109ZM110.219 674.445H96.4424H96.4416H82.6648V688.222H96.4416H96.4424H110.219V674.445ZM110.22 674.445H123.998V688.222H110.22V674.445ZM110.219 688.223V702H96.4424H96.4416H82.6648V688.223H96.4416H96.4424H110.219ZM123.998 702H137.775V688.223H123.998H123.997H110.22V702H123.997H123.998ZM344.439 688.223V702H330.662V688.223H344.439ZM399.548 702V688.223H385.771V702H399.548ZM344.439 674.445V688.222H330.662V674.445H344.439ZM192.885 550.447V564.224H179.108V550.447H192.885ZM123.997 288.673H137.775V302.451H123.997V288.673ZM151.553 288.673H137.776V302.451H151.553V288.673ZM137.776 274.895H151.553V288.673H137.776V274.895ZM123.997 274.895H137.775V288.673H123.997V274.895ZM123.997 261.118V274.895H137.775V261.118V261.118V247.34H123.997V261.118V261.118ZM137.775 233.563H123.997V247.34H137.775V233.563ZM303.106 123.342H316.883H316.884H330.661V137.12V137.12V150.897H316.884H316.883H303.106V137.12V137.12V123.342ZM358.216 150.897H344.439H344.439H330.662V164.675H344.439H344.439H358.216V150.897ZM371.994 150.897V137.12H385.772V150.897H371.994ZM358.215 123.342V137.12H371.993V123.342H358.215ZM330.661 150.897H316.883V164.675H330.661V150.897ZM358.216 164.675V178.452V178.453V192.23H344.439H344.439H330.662V178.452H344.439V164.675H358.216ZM330.661 164.675H316.883V178.453H330.661V164.675ZM330.662 95.7869H344.439V109.564H330.662V95.7869ZM358.215 109.565H344.439V123.342H358.215H358.216H371.993V109.565H358.216H358.215ZM385.772 123.342V109.565H371.994V123.342H385.772ZM385.772 95.7869H399.548V109.564H385.772H385.771H371.994V95.7872V95.7869V82.0097H385.772V95.7869Z" fill="#413E2D"/>
<path fill-rule="evenodd" clip-rule="evenodd" d="M316.883 55.1104H330.661V68.8879H316.883V55.1104ZM303.106 68.8881H316.883H316.884H330.661V82.6656H316.884H316.883H303.106V68.8881ZM344.439 82.6653H330.662V96.4429H344.439V82.6653ZM344.439 96.443H358.215H358.216H371.993V110.221H358.216H358.215H344.439V96.443ZM330.662 164.675H344.439V178.452H330.662V164.675ZM330.661 178.452H316.884H316.883H303.106V192.23H316.883H316.884H330.661V178.452ZM330.661 206.008H316.884V219.785H303.106V206.007H316.883V192.23H330.661V206.008ZM303.106 233.563H316.883H316.884H330.661V247.34H316.884H316.883H303.106V233.563ZM247.996 233.563H234.219V247.34H247.996V233.563ZM220.441 233.563H234.218V247.34H220.441H220.44H206.663V233.563H220.44H220.441ZM358.216 412.671V398.893H344.439V412.671H358.216ZM192.885 467.782H206.662V481.559V481.559V495.336H192.885V481.559V481.559V467.782ZM206.662 509.114V495.337H192.885H192.885H179.109H179.108H165.331V509.114H179.108H179.109H192.885H192.885H206.662ZM358.216 425.792V412.671H344.439V426.449H358.215V439.57H371.993V425.792H358.216ZM179.109 509.114V522.892H165.331V509.114H179.109ZM96.4424 660.667H82.6648V674.445H96.4424V660.667ZM123.997 674.445H137.775V688.223H123.997V674.445ZM151.552 688.222H137.776V702H151.552H151.553H165.33V688.222H151.553H151.552ZM399.549 688.222H413.326H413.327H427.104V702H413.327H413.326H399.549V688.222ZM371.994 440.226H385.772V454.004H371.994V440.226ZM399.548 454.004H385.772H385.771H371.994V467.781H385.771H385.772H399.548V454.004ZM413.327 454.004H399.549V467.781H413.327V454.004ZM399.548 467.782V481.559H385.771V467.782H399.548ZM330.661 219.785H316.883V233.563H330.661V219.785ZM344.439 192.23H330.662V206.007V206.008V219.785H344.439H344.439H358.216V206.008V206.007V192.23H344.439H344.439ZM358.216 233.563V219.785H344.439V233.563H358.216ZM358.216 233.563V247.34H344.439V233.563H358.216ZM371.993 261.118H358.215V274.895H371.993V261.118ZM371.994 261.118H385.772V274.895H371.994V261.118ZM440.882 274.895H427.105V288.673H440.882H440.882H454.658H454.659H468.436V274.895H454.659H454.658H440.882H440.882ZM454.659 302.451V288.673H440.882V302.451H454.659ZM303.106 164.675V178.452H316.884V164.675V164.675V150.897H303.106V164.675V164.675ZM303.105 150.897H289.328V164.675H303.105V150.897ZM289.328 178.452H303.105V192.23H289.328V178.452ZM275.55 219.785H261.772V233.563H275.55V219.785ZM261.773 206.007H275.55V219.785H261.773H261.772H247.996V206.008H234.219V192.23H247.996H247.996H261.773V206.007ZM220.44 192.23H234.218V206.008H220.44V192.23ZM234.218 178.452H220.44V192.23H234.218V178.452ZM192.885 137.12H206.662V150.897H192.885H192.885H179.108V137.12H192.885H192.885ZM165.331 150.897H179.109V164.675H165.331V150.897ZM165.33 164.675H151.552V178.452H165.33V164.675ZM137.776 178.452H151.553V192.23H137.776V178.452ZM137.775 192.23H123.997V206.008H137.775V192.23ZM344.439 55.1104H330.662V68.8879H344.439H344.439H358.216V55.1104H344.439H344.439ZM399.548 55.1104H385.771V68.8879H399.548V55.1104Z" fill="#6E6A49"/>
<path fill-rule="evenodd" clip-rule="evenodd" d="M303.108 41.3328H316.885H316.886H330.663V55.1103H316.886H316.885H303.108V41.3328ZM344.441 41.3328H330.664V55.1103H344.441H344.441H358.218V41.3328H344.441H344.441ZM371.996 41.3328H358.219V55.1103H371.996H371.997H385.774V41.3328H371.997H371.996ZM371.996 55.1105H358.219V68.8881H371.996V82.6653H385.774V68.8881V68.8877V55.1105H371.997H371.996ZM399.552 41.3328H385.775V55.1103H399.552V41.3328ZM316.886 55.1105H303.108V68.8881H316.886V55.1105Z" fill="#6A6A67"/>
<path fill-rule="evenodd" clip-rule="evenodd" d="M330.663 0H316.885V13.7776H330.663V0ZM303.108 13.7777H316.885H316.886H330.663V27.555V27.5553V41.3325H316.886H316.885H303.108V27.5553V27.555V13.7777ZM385.775 41.3325V27.5553V27.555V13.7777H399.552V27.555V27.5553V41.3325H385.775ZM344.441 13.7777H330.664V27.555V27.5553V41.3325H344.441H344.441H358.218V27.5553V27.555V13.7777H344.441H344.441ZM371.996 13.7777H358.219V27.555V27.5553V41.3325H371.996H371.997H385.774V27.5553V27.555V13.7777H371.997H371.996ZM330.664 0H344.441H344.441H358.218V13.7776H344.441H344.441H330.664V0ZM358.219 0H371.996H371.997H385.774V13.7776H371.997H371.996H358.219V0Z" fill="#8E8E8E"/>
</g>
<defs>
<clipPath id="clip0_111_1249">
<rect width="619.991" height="702" fill="white"/>
</clipPath>
</defs>
</svg>
