<svg width="56" height="56" viewBox="0 0 56 56" fill="none" xmlns="http://www.w3.org/2000/svg">
<path d="M27.9063 55.7936C23.8605 55.7936 20.1427 55.1193 16.753 53.7707C13.3632 52.422 10.4291 50.5085 7.95056 48.03C5.47203 45.5514 3.55846 42.6173 2.20985 39.2275C0.861241 35.8378 0.186936 32.12 0.186936 28.0742C0.186936 24.0283 0.861241 20.3105 2.20985 16.9208C3.55846 13.531 5.47203 10.5969 7.95056 8.11838C10.4291 5.63985 13.3632 3.72628 16.753 2.37767C20.1427 1.02906 23.8605 0.354755 27.9063 0.354755C31.9522 0.354755 35.67 1.02906 39.0597 2.37767C42.4495 3.72628 45.3836 5.63985 47.8621 8.11838C50.3407 10.5969 52.2542 13.531 53.6028 16.9208C54.9514 20.3105 55.6258 24.0283 55.6258 28.0742C55.6258 31.4639 55.1519 34.471 54.2042 37.0953C53.2566 39.6831 51.9444 41.7243 50.2678 43.2187C48.6276 44.7131 46.714 45.4603 44.5271 45.4603C42.5224 45.4603 40.8639 44.9136 39.5518 43.8201C38.2761 42.7631 37.6382 41.2869 37.6382 39.3916V36.9313C36.9457 38.1705 36.0345 39.2822 34.9045 40.2663C33.8111 41.2505 32.6083 42.0159 31.2961 42.5626C29.9839 43.1093 28.6718 43.3827 27.3596 43.3827C24.4801 43.3827 21.9287 42.7266 19.7053 41.4145C17.5184 40.1023 15.7871 38.2981 14.5114 36.0018C13.2721 33.7055 12.6525 31.063 12.6525 28.0742C12.6525 25.0854 13.3085 22.4428 14.6207 20.1465C15.9329 17.8502 17.7371 16.046 20.0334 14.7339C22.3297 13.4217 24.954 12.7656 27.9063 12.7656C30.8952 12.7656 33.5377 13.4217 35.834 14.7339C38.1303 16.046 39.9345 17.8502 41.2467 20.1465C42.5588 22.4428 43.2149 25.0854 43.2149 28.0742V36.8219C43.2149 37.7331 43.3607 38.4439 43.6523 38.9542C43.9439 39.4645 44.4177 39.7196 45.0738 39.7196C45.9486 39.7196 46.7504 39.2275 47.4794 38.2434C48.2448 37.2593 48.8463 35.8925 49.2836 34.1429C49.721 32.3569 49.9397 30.334 49.9397 28.0742C49.9397 24.8302 49.393 21.8778 48.2995 19.2171C47.2425 16.5199 45.7299 14.1871 43.7616 12.2189C41.7934 10.2506 39.4607 8.73801 36.7634 7.68099C34.1027 6.58752 31.1503 6.04079 27.9063 6.04079C24.6988 6.04079 21.7465 6.58752 19.0493 7.68099C16.352 8.73801 14.0193 10.2506 12.0511 12.2189C10.0828 14.1871 8.55196 16.5199 7.4585 19.2171C6.40148 21.8778 5.87297 24.8302 5.87297 28.0742C5.87297 31.2817 6.40148 34.234 7.4585 36.9313C8.55196 39.6285 10.0828 41.9612 12.0511 43.9294C14.0193 45.8977 16.352 47.4103 19.0493 48.4673C21.7465 49.5608 24.6988 50.1075 27.9063 50.1075C29.3643 50.1075 30.9316 49.9253 32.6083 49.5608C34.3214 49.2328 35.7793 48.7954 36.9821 48.2486C38.2214 47.629 39.2237 47.5561 39.9892 48.03C40.791 48.5038 41.192 49.415 41.192 50.7636C41.192 51.7477 40.627 52.6043 39.4971 53.3333C38.3672 54.0987 36.7999 54.7001 34.7952 55.1375C32.7905 55.5749 30.4942 55.7936 27.9063 55.7936ZM27.9063 37.642C29.8017 37.642 31.4601 37.2411 32.8816 36.4392C34.3031 35.6009 35.4148 34.471 36.2167 33.0494C37.055 31.5915 37.4742 29.9331 37.4742 28.0742C37.4742 26.1788 37.055 24.5204 36.2167 23.0989C35.4148 21.6774 34.3031 20.5657 32.8816 19.7638C31.4601 18.9255 29.8017 18.5063 27.9063 18.5063C26.011 18.5063 24.3526 18.9255 22.9311 19.7638C21.5096 20.5657 20.3796 21.6774 19.5413 23.0989C18.7394 24.5204 18.3385 26.1788 18.3385 28.0742C18.3385 29.9331 18.7394 31.5915 19.5413 33.0494C20.3796 34.471 21.5096 35.6009 22.9311 36.4392C24.3526 37.2411 26.011 37.642 27.9063 37.642Z" fill="url(#paint0_linear_5_2791)"/>
<defs>
<linearGradient id="paint0_linear_5_2791" x1="28" y1="-5" x2="28" y2="56" gradientUnits="userSpaceOnUse">
<stop stop-color="#FFEE55"/>
<stop offset="1" stop-color="#B61600"/>
</linearGradient>
</defs>
</svg>
