<svg width="415" height="434" viewBox="0 0 415 434" fill="none" xmlns="http://www.w3.org/2000/svg">
<path fill-rule="evenodd" clip-rule="evenodd" d="M343.73 138.891H163.746V300.256H343.73V138.891ZM343.73 411.97V300.256H145.127V411.97H343.73Z" fill="#FCDCA0"/>
<path fill-rule="evenodd" clip-rule="evenodd" d="M188.571 20.97H163.746V52.0017H107.889V107.859H83.0635V163.716H52.0317V263.018V312.668V337.494H76.8571V312.668H169.952L169.952 256.811V194.748H194.778V163.716H225.809V138.891H250.635V83.0335H281.667V20.97H250.635H225.809H188.571ZM169.953 225.78H194.778V263.018H219.603V337.494H194.778V312.668H169.953V225.78ZM281.667 20.97H312.698V52.0017H281.667V20.97ZM337.524 52.0017H306.492V83.0335H337.524L337.524 107.859H368.556V83.0335V76.827V52.0017H337.524ZM362.349 107.859H393.381V275.43H362.349V107.859ZM362.349 275.43H337.524V300.256H362.349V275.43Z" fill="#7D311A"/>
<path fill-rule="evenodd" clip-rule="evenodd" d="M306.492 52.0017H281.667V76.8272H250.635V107.859H337.524V76.8272H306.492V52.0017ZM362.349 107.859H337.524V275.43H362.349V107.859ZM294.079 275.43H337.524V300.256H294.079V275.43Z" fill="#4D0F0A"/>
<path fill-rule="evenodd" clip-rule="evenodd" d="M250.635 163.716H194.778V194.748H250.635V163.716ZM337.523 163.716H306.492V194.748H337.523V163.716Z" fill="#120022"/>
<path fill-rule="evenodd" clip-rule="evenodd" d="M250.635 194.748H219.603V225.78H250.635V194.748ZM337.524 194.748H306.492V225.78H337.524V194.748Z" fill="#2E5887"/>
<path fill-rule="evenodd" clip-rule="evenodd" d="M337.524 107.859H250.635V132.684H219.604V163.716H250.635V138.891H337.524V107.859ZM194.778 194.748H169.953V225.779H194.778V194.748ZM194.778 244.398H219.604V275.43H194.778V244.398ZM294.08 275.43H219.604V300.256H294.08V275.43ZM312.699 250.605H337.524V275.43H312.699V250.605ZM244.429 337.494H219.604V362.319H244.429V337.494Z" fill="#EC8D2F"/>
<rect x="194" y="193.97" width="25" height="31" fill="white"/>
<path fill-rule="evenodd" clip-rule="evenodd" d="M169.953 312.668H138.921V362.319H169.953V312.668ZM194.778 362.319H169.953V411.97H194.778V362.319Z" fill="#3F4B4E"/>
<rect x="325" y="337.97" width="25" height="24" fill="#3F4B4E"/>
<rect x="301" y="300.97" width="24" height="37" fill="#3F4B4E"/>
<path fill-rule="evenodd" clip-rule="evenodd" d="M169.952 312.668H194.778V362.319H169.952V312.668ZM194.778 337.494H219.603V362.319H300.285V337.494H325.111V411.97H300.285V411.97H194.778V387.145V362.319V337.494ZM325.111 362.319H349.936V411.97H325.111V362.319Z" fill="#7E8E93"/>
<rect x="52" y="337.97" width="87" height="74" fill="#F2BF57"/>
<path fill-rule="evenodd" clip-rule="evenodd" d="M138.921 362.319H169.953V411.97H138.921V362.319ZM21 380.938H83.0635V411.97H21V380.938ZM380.968 362.319H349.936V411.97H380.968V362.319Z" fill="#2C2C2C"/>
<path fill-rule="evenodd" clip-rule="evenodd" d="M349.937 300.256H380.968V362.319H349.936V337.494H325.111V300.256H349.936H349.937ZM76.8572 312.668H138.921V337.494H76.8572V312.668Z" fill="#B05F28"/>
</svg>
