<svg width="83" height="87" viewBox="0 0 83 87" fill="none" xmlns="http://www.w3.org/2000/svg">
<path fill-rule="evenodd" clip-rule="evenodd" d="M68.8382 27.6211H32.793V59.9375H68.8382V27.6211ZM68.8382 82.3104V59.9375H29.0642V82.3104H68.8382Z" fill="#FCDCA0"/>
<path fill-rule="evenodd" clip-rule="evenodd" d="M37.7652 4.00537H32.7931V10.2202H21.6069V21.4066H16.6352V32.5933H10.4204V52.4799V62.4238V67.3952H15.3922V62.4238H34.0362L34.0362 62.4236H39.0079V67.3952H43.9796V52.4799H39.008V45.0224H34.0363V38.8077H39.008V32.593H45.2225V27.6212H50.1946V16.4348H56.4091V10.2201H62.6238V4.00537H56.4091H50.1946H45.2227H45.2225H37.7652ZM67.5956 10.2202H61.381V16.4349H67.5956V21.4067H72.5674V54.966H78.7821V21.4066H73.8102V16.4349V15.192V10.2202H67.5957H67.5956ZM72.5673 54.966H67.5956V59.9377H72.5673V54.966Z" fill="#7D311A"/>
<path fill-rule="evenodd" clip-rule="evenodd" d="M61.3806 10.2197H56.4089V15.1916H50.1941V21.4063H67.5952V15.1916H61.3806V10.2197ZM72.5673 21.4064H67.5956V54.9657H72.5673V21.4064ZM58.8945 54.966H67.5951V59.9377H58.8945V54.966Z" fill="#4D0F0A"/>
<path fill-rule="evenodd" clip-rule="evenodd" d="M67.5954 32.5933H61.3807V38.808H67.5954V32.5933ZM50.1945 32.5934H39.0081V38.808H50.1945V32.5934Z" fill="#120022"/>
<path fill-rule="evenodd" clip-rule="evenodd" d="M67.5958 38.8076H61.3811V45.0223H67.5958V38.8076ZM50.1947 38.8077H43.98V45.0224H50.1947V38.8077Z" fill="#2E5887"/>
<path fill-rule="evenodd" clip-rule="evenodd" d="M67.5954 21.4067H50.1942V26.3784H43.9797V32.5931H50.1944V27.6214H67.5954V21.4067ZM39.0079 38.808H34.0361V45.0227H39.0079V38.808ZM39.0078 48.7513H43.9795V54.966H39.0078V48.7513ZM58.8949 54.9661H43.9797V59.9378H58.8949V54.9661ZM62.6238 49.994H67.5956V54.9657H62.6238V49.994ZM48.9514 67.3954H43.9797V72.3672H48.9514V67.3954Z" fill="#EC8D2F"/>
<rect x="38.8523" y="38.6519" width="5.00672" height="6.20833" fill="white"/>
<path fill-rule="evenodd" clip-rule="evenodd" d="M34.036 62.4233H27.8213V72.3668H34.036V62.4233ZM39.0077 72.3669H34.0359V82.3104H39.0077V72.3669Z" fill="#3F4B4E"/>
<rect x="65.0874" y="67.4907" width="5.00672" height="4.80645" fill="#3F4B4E"/>
<rect x="60.2808" y="60.0806" width="4.80645" height="7.40995" fill="#3F4B4E"/>
<path fill-rule="evenodd" clip-rule="evenodd" d="M34.0361 62.4233H39.0079V67.395H43.9795V72.3666H60.1377V82.3102H39.0078V77.3385V72.3668H34.0361V62.4233ZM65.1096 72.3666H70.0814V82.3102H65.1096V72.3666ZM65.1095 67.395H60.1378V82.3102H65.1095V67.395Z" fill="#7E8E93"/>
<rect x="10.4138" y="67.4907" width="17.4234" height="14.8199" fill="#F2BF57"/>
<path fill-rule="evenodd" clip-rule="evenodd" d="M27.8216 72.3672H34.0363V82.3107H27.8216V72.3672ZM4.20581 76.0959H16.6352V82.3106H4.20581V76.0959ZM76.2961 72.3672H70.0814V82.3107H76.2961V72.3672Z" fill="#2C2C2C"/>
<path fill-rule="evenodd" clip-rule="evenodd" d="M70.0817 59.9375H76.2963V72.3669H70.0817V59.9375ZM15.3923 62.4233H27.8217V67.3951H15.3923V62.4233ZM70.0815 59.9375H65.1098V67.3951H70.0815V59.9375Z" fill="#B05F28"/>
</svg>
