<svg width="114" height="114" viewBox="0 0 114 114" fill="none" xmlns="http://www.w3.org/2000/svg">
<path d="M71.9178 90.3048L79.2379 100.504L27.5459 99.9494C22.4808 99.9494 20.9891 89.7844 26.297 89.7844L71.9178 90.3048Z" fill="#C4C4C4"/>
<path d="M71.9178 90.3048L79.2379 100.504L27.5459 99.9494C22.4808 99.9494 20.9891 89.7844 26.297 89.7844L71.9178 90.3048Z" fill="#A75609"/>
<path d="M96.4455 30.5296H81.7705L82.8113 20.1565H90.4437C95.6129 20.1565 98.7699 24.2502 96.4455 30.5296Z" fill="#D2D2D2"/>
<path d="M96.4455 30.5294H81.7705L82.8113 20.1562H90.4437C95.6129 20.1563 98.7699 24.25 96.4455 30.5294Z" fill="#A75609"/>
<path d="M85.5866 90.2703C85.5866 103.627 73.8952 104.113 71.9177 90.2703L34.866 89.8887V25.1869C35.4485 22.4438 36.2475 21.4269 38.1965 20.1912H90.4436C87.6351 20.8437 86.2111 21.9258 85.5866 24.1808C84.9621 26.4358 85.5866 90.2703 85.5866 90.2703Z" fill="white"/>
<path d="M85.5866 90.2703C85.5866 103.627 73.8952 104.113 71.9177 90.2703L34.866 89.8887V25.1869C35.4485 22.4438 36.2475 21.4269 38.1965 20.1912H90.4436C87.6351 20.8437 86.2111 21.9258 85.5866 24.1808C84.9621 26.4358 85.5866 90.2703 85.5866 90.2703Z" fill="#F7A122"/>
<path d="M19.4293 38.0667L18.9436 50.0009L48.0507 78.2754V68.5194C48.0507 68.0345 47.8627 67.5685 47.5262 67.2193L19.4293 38.0667Z" fill="#320064"/>
<path d="M37.2456 77.7161L48.0852 78.2058L18.7352 49.1681L6.21119 49.9313L36.0661 77.2272C36.3899 77.5233 36.8073 77.6963 37.2456 77.7161Z" fill="#320064"/>
<path d="M17.4231 47.5723L51.624 81.2935" stroke="white" stroke-width="1.04078" stroke-linecap="round"/>
<path d="M19.4986 38.1706L18.9782 49.3416L6.21137 49.9314C2.49924 40.6338 7.39086 32.6545 19.4986 38.1706Z" fill="white"/>
<rect x="43.782" y="36.3579" width="21.1625" height="6.52222" rx="3.26111" fill="#C4C4C4"/>
<rect x="43.782" y="36.3579" width="21.1625" height="6.52222" rx="3.26111" fill="#A75609"/>
<rect x="43.782" y="48.2922" width="33.0968" height="6.1059" rx="3.05295" fill="#C4C4C4"/>
<rect x="43.782" y="48.2922" width="33.0968" height="6.1059" rx="3.05295" fill="#A75609"/>
<rect x="54.1899" y="60.3652" width="24.1461" height="6.1059" rx="3.05295" fill="#C4C4C4"/>
<rect x="54.1899" y="60.3652" width="24.1461" height="6.1059" rx="3.05295" fill="#A75609"/>
<rect x="54.1899" y="71.8831" width="24.1461" height="6.1059" rx="3.05295" fill="#C4C4C4"/>
<rect x="54.1899" y="71.8831" width="24.1461" height="6.1059" rx="3.05295" fill="#A75609"/>
<rect x="68.4834" y="36.5659" width="10.7547" height="6.1059" rx="3.05295" fill="#C4C4C4"/>
<rect x="68.4834" y="36.5659" width="10.7547" height="6.1059" rx="3.05295" fill="#A75609"/>
</svg>
