<svg width="811" height="807" viewBox="0 0 811 807" fill="none" xmlns="http://www.w3.org/2000/svg">
<path d="M511.593 642.391L563.666 714.947L195.95 710.999C159.919 710.999 149.308 638.689 187.066 638.689L511.593 642.391Z" fill="#C4C4C4"/>
<path d="M511.593 642.391L563.666 714.947L195.95 710.999C159.919 710.999 149.308 638.689 187.066 638.689L511.593 642.391Z" fill="#A75609"/>
<path d="M686.073 217.174H581.681L589.085 143.385H643.379C680.15 143.385 702.608 172.506 686.073 217.174Z" fill="#D2D2D2"/>
<path d="M686.073 217.174H581.681L589.085 143.384H643.379C680.15 143.384 702.608 172.505 686.073 217.174Z" fill="#A75609"/>
<path d="M608.827 642.145C608.827 737.159 525.66 740.614 511.593 642.145L248.022 639.43V179.169C252.166 159.655 257.85 152.422 271.714 143.631H643.378C623.4 148.273 613.27 155.971 608.827 172.012C604.385 188.053 608.827 642.145 608.827 642.145Z" fill="white"/>
<path d="M608.827 642.145C608.827 737.159 525.66 740.614 511.593 642.145L248.022 639.43V179.169C252.166 159.655 257.85 152.422 271.714 143.631H643.378C623.4 148.273 613.27 155.971 608.827 172.012C604.385 188.053 608.827 642.145 608.827 642.145Z" fill="#F7A122"/>
<path d="M138.212 270.79L134.757 355.685L341.813 556.818V487.418C341.813 483.968 340.476 480.653 338.082 478.17L138.212 270.79Z" fill="#320064"/>
<path d="M264.95 552.84L342.058 556.324L133.275 349.762L44.1838 355.191L256.559 549.363C258.862 551.469 261.832 552.699 264.95 552.84Z" fill="#320064"/>
<path d="M123.941 338.41L367.231 578.289" stroke="white" stroke-width="7.40367" stroke-linecap="round"/>
<path d="M138.705 271.53L135.003 350.996L44.185 355.191C17.7785 289.052 52.5754 232.29 138.705 271.53Z" fill="white"/>
<rect x="311.447" y="258.635" width="150.541" height="46.3963" rx="23.1982" fill="#C4C4C4"/>
<rect x="311.447" y="258.635" width="150.541" height="46.3963" rx="23.1982" fill="#A75609"/>
<rect x="311.447" y="343.53" width="235.437" height="43.4349" rx="21.7174" fill="#C4C4C4"/>
<rect x="311.447" y="343.53" width="235.437" height="43.4349" rx="21.7174" fill="#A75609"/>
<rect x="385.485" y="429.413" width="171.765" height="43.4349" rx="21.7174" fill="#C4C4C4"/>
<rect x="385.485" y="429.413" width="171.765" height="43.4349" rx="21.7174" fill="#A75609"/>
<rect x="385.485" y="511.347" width="171.765" height="43.4349" rx="21.7174" fill="#C4C4C4"/>
<rect x="385.485" y="511.347" width="171.765" height="43.4349" rx="21.7174" fill="#A75609"/>
<rect x="487.163" y="260.115" width="76.5046" height="43.4349" rx="21.7174" fill="#C4C4C4"/>
<rect x="487.163" y="260.115" width="76.5046" height="43.4349" rx="21.7174" fill="#A75609"/>
</svg>
