<svg width="52" height="117" viewBox="0 0 52 117" fill="none" xmlns="http://www.w3.org/2000/svg">
<path d="M19.5154 15.967V81.7706H25.6441V25.3215L19.5154 15.967Z" fill="#E3E3E3"/>
<path d="M32.0954 15.967L25.644 25.3215V81.7706H32.0954V15.967Z" fill="#F1F1F1"/>
<path d="M25.6441 25.3215L19.5154 15.967L25.6441 6.7739L32.0955 15.967L25.6441 25.3215Z" fill="white"/>
<path d="M21.7731 105.641L21.6118 87.4155L26.9342 92.0927V105.641H21.7731Z" fill="#F2BF57"/>
<path d="M30.805 87.2542L21.6118 87.4155L26.9342 92.0927V105.641H30.6437L30.805 87.2542Z" fill="#B05F28"/>
<path d="M33.3856 110.479L30.6438 105.641H21.7733L19.354 110.479H33.3856Z" fill="#727272"/>
<path d="M23.2248 113.866L19.354 110.479H33.3857L29.902 113.866H23.2248Z" fill="#333333"/>
<path d="M9.99951 75.4806L20.6442 87.8994L23.386 82.8996L25.644 81.0719V79.4273L9.99951 75.4806Z" fill="#727272"/>
<path d="M41.1272 74.6741L32.2567 88.2219L26.4505 87.4155L20.6443 87.8994L22.2571 80.4803L41.1272 74.6741Z" fill="#333333"/>
</svg>
