<svg width="70" height="58" viewBox="0 0 70 58" fill="none" xmlns="http://www.w3.org/2000/svg">
<path fill-rule="evenodd" clip-rule="evenodd" d="M46.496 19.5108C44.6406 21.7629 41.3108 22.0844 39.0587 20.2289L39.0366 20.2107L39.0145 20.1926C38.9702 20.1561 38.9266 20.1191 38.8838 20.0816C38.8384 20.0472 38.7933 20.012 38.7487 19.9759C29.2116 12.265 17.3288 9.37026 6.04339 11.0091C3.15572 11.4284 0.47486 9.42742 0.0555282 6.53974C-0.363801 3.65207 1.63719 0.971215 4.52486 0.551877C18.6028 -1.49244 33.4717 2.1208 45.3924 11.7588C45.4479 11.8037 45.5023 11.8495 45.5556 11.8962C45.612 11.9389 45.6678 11.9829 45.723 12.0283L45.7505 12.0509L45.778 12.0735C48.03 13.929 48.3515 17.2588 46.496 19.5108ZM36.6515 28.2219C33.9635 29.3573 32.705 32.4569 33.8405 35.1448C34.9759 37.8328 38.0755 39.0913 40.7634 37.9558L40.7954 37.9423L40.8273 37.9288C40.8913 37.9017 40.9546 37.8734 41.017 37.844C41.0813 37.8191 41.1454 37.7928 41.2092 37.7651C54.9131 31.8264 64.7472 20.6214 69.3397 7.54497C70.3066 4.79187 68.8586 1.7762 66.1055 0.809297C63.3524 -0.157611 60.3367 1.29039 59.3698 4.04349C55.7123 14.4576 47.8989 23.3496 37.0075 28.0695C36.9566 28.0916 36.9062 28.1144 36.8563 28.1378C36.8049 28.1578 36.7536 28.1786 36.7025 28.2003L36.677 28.2111L36.6515 28.2219ZM27.4577 18.6868C27.4147 15.7691 25.0146 13.4388 22.097 13.4818C19.1793 13.5248 16.849 15.9249 16.892 18.8426L16.8925 18.8772L16.8931 18.9118C16.8942 18.9812 16.8966 19.0503 16.9004 19.1191C16.8994 19.1879 16.8997 19.2571 16.9014 19.3265C17.2588 34.2306 23.9389 47.5287 34.3151 56.679C36.5036 58.609 39.8424 58.3993 41.7723 56.2108C43.7023 54.0223 43.4927 50.6836 41.3042 48.7536C33.0443 41.4696 27.7492 30.913 27.4652 19.0731C27.4639 19.0178 27.4617 18.9626 27.4587 18.9077C27.4595 18.8526 27.4595 18.7974 27.4586 18.742L27.4581 18.7144L27.4577 18.6868Z" fill="url(#paint0_linear_5_2144)"/>
<defs>
<linearGradient id="paint0_linear_5_2144" x1="0.0158578" y1="3.00867" x2="46.5579" y2="49.8776" gradientUnits="userSpaceOnUse">
<stop stop-color="#FF0099"/>
<stop offset="1" stop-color="#5200FF"/>
</linearGradient>
</defs>
</svg>
